<svg xmlns="http://www.w3.org/2000/svg" viewBox="0 0 500 500"><g id="freepik--background-complete--inject-1"><rect x="416.78" y="398.49" width="33.12" height="0.25" style="fill:#ebebeb"></rect><rect x="322.53" y="401.21" width="8.69" height="0.25" style="fill:#ebebeb"></rect><rect x="396.59" y="389.21" width="19.19" height="0.25" style="fill:#ebebeb"></rect><rect x="52.46" y="390.89" width="43.19" height="0.25" style="fill:#ebebeb"></rect><rect x="104.56" y="390.89" width="6.33" height="0.25" style="fill:#ebebeb"></rect><rect x="131.47" y="395.11" width="93.68" height="0.25" style="fill:#ebebeb"></rect><path d="M237,337.8H43.92a5.71,5.71,0,0,1-5.71-5.71V60.66A5.71,5.71,0,0,1,43.92,55H237a5.71,5.71,0,0,1,5.71,5.71V332.09A5.71,5.71,0,0,1,237,337.8ZM43.92,55.2a5.47,5.47,0,0,0-5.46,5.46V332.09a5.47,5.47,0,0,0,5.46,5.46H237a5.47,5.47,0,0,0,5.46-5.46V60.66A5.47,5.47,0,0,0,237,55.2Z" style="fill:#ebebeb"></path><path d="M453.31,337.8H260.21a5.72,5.72,0,0,1-5.71-5.71V60.66A5.72,5.72,0,0,1,260.21,55h193.1A5.71,5.71,0,0,1,459,60.66V332.09A5.71,5.71,0,0,1,453.31,337.8ZM260.21,55.2a5.47,5.47,0,0,0-5.46,5.46V332.09a5.47,5.47,0,0,0,5.46,5.46h193.1a5.47,5.47,0,0,0,5.46-5.46V60.66a5.47,5.47,0,0,0-5.46-5.46Z" style="fill:#ebebeb"></path><rect y="382.4" width="500" height="0.25" style="fill:#ebebeb"></rect><polygon points="103.23 217.04 103.23 211.54 89.32 211.54 60.61 196.34 60.61 211.54 57.31 211.54 57.31 217.04 53.8 217.04 53.8 382.35 106.75 382.35 106.75 217.04 103.23 217.04" style="fill:#ebebeb"></polygon><rect x="69.67" y="224.3" width="8.85" height="8.85" style="fill:#fafafa"></rect><rect x="69.67" y="237.65" width="8.85" height="8.85" style="fill:#fafafa"></rect><rect x="57.31" y="250.99" width="8.85" height="8.85" style="fill:#fafafa"></rect><rect x="82.02" y="250.99" width="8.85" height="8.85" style="fill:#fafafa"></rect><rect x="94.38" y="250.99" width="8.85" height="8.85" style="fill:#fafafa"></rect><rect x="82.02" y="264.34" width="8.85" height="8.85" style="fill:#fafafa"></rect><rect x="69.67" y="277.68" width="8.85" height="8.85" style="fill:#fafafa"></rect><rect x="94.38" y="277.68" width="8.85" height="8.85" style="fill:#fafafa"></rect><rect x="57.31" y="291.03" width="8.85" height="8.85" style="fill:#fafafa"></rect><rect x="69.67" y="291.03" width="8.85" height="8.85" style="fill:#fafafa"></rect><rect x="82.02" y="291.03" width="8.85" height="8.85" style="fill:#fafafa"></rect><rect x="94.38" y="304.37" width="8.85" height="8.85" style="fill:#fafafa"></rect><rect x="57.31" y="317.72" width="8.85" height="8.85" style="fill:#fafafa"></rect><rect x="94.38" y="331.07" width="8.85" height="8.85" style="fill:#fafafa"></rect><rect x="57.31" y="344.15" width="8.85" height="8.85" transform="translate(5 -0.85) rotate(0.82)" style="fill:#fafafa"></rect><rect x="94.38" y="357.76" width="8.85" height="8.85" style="fill:#fafafa"></rect><rect x="133.68" y="282.42" width="52.95" height="99.92" style="fill:#e0e0e0"></rect><rect x="174.27" y="291.03" width="8.85" height="8.85" style="fill:#fafafa"></rect><rect x="137.19" y="304.37" width="8.85" height="8.85" style="fill:#fafafa"></rect><rect x="161.91" y="304.37" width="8.85" height="8.85" style="fill:#fafafa"></rect><rect x="174.27" y="304.37" width="8.85" height="8.85" style="fill:#fafafa"></rect><rect x="149.55" y="317.72" width="8.85" height="8.85" style="fill:#fafafa"></rect><rect x="137.19" y="331.07" width="8.85" height="8.85" style="fill:#fafafa"></rect><rect x="161.91" y="331.07" width="8.85" height="8.85" style="fill:#fafafa"></rect><rect x="174.27" y="331.07" width="8.85" height="8.85" style="fill:#fafafa"></rect><rect x="174.27" y="344.68" width="8.85" height="8.85" transform="translate(5.02 -2.53) rotate(0.82)" style="fill:#fafafa"></rect><rect x="149.55" y="357.76" width="8.85" height="8.85" style="fill:#fafafa"></rect><rect x="161.91" y="357.76" width="8.85" height="8.85" style="fill:#fafafa"></rect><polygon points="319.09 238.88 319.09 230.71 302.57 230.71 302.57 238.88 275.15 238.88 275.15 382.35 323.09 382.35 323.09 238.88 319.09 238.88" style="fill:#ebebeb"></polygon><rect x="290.64" y="249.21" width="7.08" height="7.08" style="fill:#fafafa"></rect><rect x="300.53" y="249.21" width="7.08" height="7.08" style="fill:#fafafa"></rect><rect x="280.75" y="259.88" width="7.08" height="7.08" style="fill:#fafafa"></rect><rect x="290.64" y="259.88" width="7.08" height="7.08" style="fill:#fafafa"></rect><rect x="310.41" y="259.88" width="7.08" height="7.08" style="fill:#fafafa"></rect><rect x="280.75" y="270.56" width="7.08" height="7.08" style="fill:#fafafa"></rect><rect x="300.53" y="270.56" width="7.08" height="7.08" style="fill:#fafafa"></rect><rect x="310.41" y="270.56" width="7.08" height="7.08" style="fill:#fafafa"></rect><rect x="280.75" y="291.91" width="7.08" height="7.08" style="fill:#fafafa"></rect><rect x="300.53" y="291.91" width="7.08" height="7.08" style="fill:#fafafa"></rect><rect x="280.75" y="302.59" width="7.08" height="7.08" style="fill:#fafafa"></rect><rect x="290.64" y="302.59" width="7.08" height="7.08" style="fill:#fafafa"></rect><rect x="310.41" y="302.59" width="7.08" height="7.08" style="fill:#fafafa"></rect><rect x="310.41" y="313.27" width="7.08" height="7.08" style="fill:#fafafa"></rect><rect x="280.75" y="323.94" width="7.08" height="7.08" style="fill:#fafafa"></rect><rect x="290.64" y="323.94" width="7.08" height="7.08" style="fill:#fafafa"></rect><rect x="300.53" y="334.69" width="7.08" height="7.08" transform="translate(4.88 -4.32) rotate(0.82)" style="fill:#fafafa"></rect><rect x="310.41" y="334.83" width="7.08" height="7.08" transform="translate(4.88 -4.47) rotate(0.82)" style="fill:#fafafa"></rect><rect x="280.75" y="345.3" width="7.08" height="7.08" style="fill:#fafafa"></rect><path d="M439.65,178V151a33.11,33.11,0,0,0-32.53,27h-7.51V382.35h44.27V178Z" style="fill:#ebebeb"></path><rect x="403.37" y="188.69" width="7.08" height="7.08" style="fill:#fafafa"></rect><rect x="403.37" y="199.36" width="7.08" height="7.08" style="fill:#fafafa"></rect><rect x="423.15" y="199.36" width="7.08" height="7.08" style="fill:#fafafa"></rect><rect x="433.03" y="199.36" width="7.08" height="7.08" style="fill:#fafafa"></rect><rect x="413.26" y="210.04" width="7.08" height="7.08" style="fill:#fafafa"></rect><rect x="433.03" y="210.04" width="7.08" height="7.08" style="fill:#fafafa"></rect><rect x="403.37" y="220.72" width="7.08" height="7.08" style="fill:#fafafa"></rect><rect x="423.15" y="220.72" width="7.08" height="7.08" style="fill:#fafafa"></rect><rect x="423.15" y="231.39" width="7.08" height="7.08" style="fill:#fafafa"></rect><rect x="433.03" y="231.39" width="7.08" height="7.08" style="fill:#fafafa"></rect><rect x="413.26" y="242.07" width="7.08" height="7.08" style="fill:#fafafa"></rect><rect x="433.03" y="242.07" width="7.08" height="7.08" style="fill:#fafafa"></rect><rect x="413.26" y="252.75" width="7.08" height="7.08" style="fill:#fafafa"></rect><rect x="423.15" y="252.75" width="7.08" height="7.08" style="fill:#fafafa"></rect><rect x="423.15" y="263.42" width="7.08" height="7.08" style="fill:#fafafa"></rect><rect x="433.03" y="263.42" width="7.08" height="7.08" style="fill:#fafafa"></rect><rect x="413.26" y="284.71" width="7.08" height="7.08" transform="translate(4.18 -5.95) rotate(0.82)" style="fill:#fafafa"></rect><rect x="433.03" y="284.99" width="7.08" height="7.08" transform="translate(4.18 -6.23) rotate(0.82)" style="fill:#fafafa"></rect><rect x="433.03" y="295.45" width="7.08" height="7.08" style="fill:#fafafa"></rect><polygon points="414 382.35 367.04 382.35 367.04 221.93 414 241.01 414 382.35" style="fill:#e0e0e0"></polygon><rect x="382.04" y="238.53" width="7.08" height="7.08" style="fill:#fafafa"></rect><rect x="372.15" y="249.21" width="7.08" height="7.08" style="fill:#fafafa"></rect><rect x="372.15" y="259.88" width="7.08" height="7.08" style="fill:#fafafa"></rect><rect x="382.04" y="259.88" width="7.08" height="7.08" style="fill:#fafafa"></rect><rect x="391.93" y="259.88" width="7.08" height="7.08" style="fill:#fafafa"></rect><rect x="372.15" y="281.24" width="7.08" height="7.08" style="fill:#fafafa"></rect><rect x="391.93" y="281.24" width="7.08" height="7.08" style="fill:#fafafa"></rect><rect x="382.04" y="291.91" width="7.08" height="7.08" style="fill:#fafafa"></rect><rect x="372.15" y="302.59" width="7.08" height="7.08" style="fill:#fafafa"></rect><rect x="391.93" y="302.59" width="7.08" height="7.08" style="fill:#fafafa"></rect><rect x="401.82" y="302.59" width="7.08" height="7.08" style="fill:#fafafa"></rect><rect x="382.04" y="313.27" width="7.08" height="7.08" style="fill:#fafafa"></rect><rect x="372.15" y="323.94" width="7.08" height="7.08" style="fill:#fafafa"></rect><rect x="382.04" y="323.94" width="7.08" height="7.08" style="fill:#fafafa"></rect><rect x="401.82" y="323.94" width="7.08" height="7.08" style="fill:#fafafa"></rect><rect x="372.15" y="334.41" width="7.08" height="7.08" transform="translate(4.88 -5.35) rotate(0.82)" style="fill:#fafafa"></rect><rect x="391.93" y="334.69" width="7.08" height="7.08" transform="translate(4.89 -5.64) rotate(0.82)" style="fill:#fafafa"></rect><rect x="401.81" y="334.83" width="7.08" height="7.08" transform="translate(4.89 -5.78) rotate(0.82)" style="fill:#fafafa"></rect><rect x="382.04" y="345.3" width="7.08" height="7.08" style="fill:#fafafa"></rect><path d="M117,117.61c-8.44,0-32.11,3.9-32.11-10.45,0-12.19,11.57-11.29,11.57-11.29s-.33-10.56,10-12c10.57-1.44,12.17,10,12.17,10s18.35-7.26,15.55,11c0,0,10.17-2,10.17,6.18C144.32,120.2,125.18,117.58,117,117.61Z" style="fill:#f0f0f0"></path><path d="M244.85,139.46c-11.73,0-44.64,5.42-44.64-14.52,0-17,16.08-15.7,16.08-15.7s-.46-14.68,13.87-16.64c14.69-2,16.91,13.86,16.91,13.86s25.5-10.1,21.62,15.25c0,0,14.14-2.82,14.14,8.6C282.83,143.06,256.22,139.42,244.85,139.46Z" style="fill:#f0f0f0"></path><path d="M367.25,113.41c-8.59,0-32.66,4-32.66-10.63,0-12.4,11.77-11.48,11.77-11.48S346,80.56,356.5,79.13c10.75-1.47,12.37,10.14,12.37,10.14s18.66-7.39,15.82,11.15c0,0,10.35-2.06,10.35,6.29C395,116,375.57,113.38,367.25,113.41Z" style="fill:#f5f5f5"></path></g><g id="freepik--Shadow--inject-1"><ellipse id="freepik--path--inject-1" cx="245.18" cy="412.39" rx="193.89" ry="11.32" style="fill:#f5f5f5"></ellipse></g><g id="freepik--character-3--inject-1"><path d="M334.51,178.3s-5.66-7.52,5.78-11.3,16.55-2.09,16.55-2.09-4.38.81-5.72,1.68,8.89-2.19,13.15,4.82c0,0-2.19-1.39-4.14-.78s5.19,2.11,1.44,9.58,8.66,5.24,6.11,14.21-15.19,5.3-20.2,6.13-15.7,5.5-14.37-4.59c0,0-1,1.23-.74,4.64,0,0-3.69-4.64.55-10.52A10.42,10.42,0,0,1,334.51,178.3Z" style="fill:#263238"></path><path d="M376.43,290.31s9.5,24.11,11.69,37,7.8,63.81,7.8,63.81l-8.28,1S375,360.94,374.49,331.23c0,0-11.45-25.09-16.81-34.59Z" style="fill:#ffb573"></path><path d="M396.58,377.08,399,394.64a1.91,1.91,0,0,0,1.33,1.59,66.32,66.32,0,0,0,7,1.88,75.12,75.12,0,0,0,8.17.22,1.9,1.9,0,0,1,1.89,1.53h0a2.08,2.08,0,0,1-1.51,2.45l-25.33,6.45a1.92,1.92,0,0,1-2.36-1.41l-6.45-26a2.09,2.09,0,0,1,1.41-2.48l10.93-3.38A1.92,1.92,0,0,1,396.58,377.08Z" style="fill:#263238"></path><path d="M366.69,254.51,369.61,265s4.63,9.74,10.72,30.2l-20.94,7.31s-12.67-14.37-15.59-30.69,0-16.36,0-16.36Z" style="fill:#263238"></path><path d="M366.69,254.51,369.61,265s4.63,9.74,10.72,30.2l-20.94,7.31s-12.67-14.37-15.59-30.69,0-16.36,0-16.36Z" style="fill:#fff;opacity:0.2"></path><path d="M362.25,262.42l-3.84,1.1v6l-3.94,12.43s-.54,7.05-.49,13.34c1.88,2.83,3.54,5,4.51,6.15h0C368.72,286,362.25,262.42,362.25,262.42Z" style="opacity:0.2"></path><path d="M355,296.15s0,39-3.89,45.06-30.94,42.13-30.94,42.13L314.09,379s9.25-29.22,24.35-44.08c0,0-3.9-25.82-3.9-41.89Z" style="fill:#ffb573"></path><path d="M329.71,374.17l-10.6,14.22a1.91,1.91,0,0,0-.18,2.06,69.41,69.41,0,0,0,3.63,6.24,77.23,77.23,0,0,0,5.66,5.9,1.92,1.92,0,0,1,.27,2.42h0a2.09,2.09,0,0,1-2.8.68l-22.55-13.23a1.92,1.92,0,0,1-.68-2.66l13.7-23a2.1,2.1,0,0,1,2.75-.78l10.15,5.29A1.92,1.92,0,0,1,329.71,374.17Z" style="fill:#263238"></path><path d="M361.82,254.51s2.68,29.95-4.14,42.13l-1.22,5.85h-22.4a67.26,67.26,0,0,1,4.14-46.76Z" style="fill:#263238"></path><path d="M361.82,254.51s2.68,29.95-4.14,42.13l-1.22,5.85h-22.4a67.26,67.26,0,0,1,4.14-46.76Z" style="fill:#fff;opacity:0.2"></path><path d="M396.41,267.17l3.16,6.46,6.9,4.24a3.13,3.13,0,0,1,1.36,1.77h0a3.13,3.13,0,0,1-2.46,4L403,284a3.08,3.08,0,0,1-2.14-.4l-3.33-2a3.13,3.13,0,0,1-1.44-2l-.93-4.28-4.14-6.09Z" style="fill:#ffb573"></path><path d="M361.42,204s6.49-.4,12.82,11,6.53,19.65,10,25.58c4.21,7.22,6.09,6.81,14.37,29.71a8.38,8.38,0,0,1-5.6,3.29S381.31,256.7,375.7,245s-15.58-33.12-15.58-33.12Z" style="fill:#169B6E"></path><path d="M369.14,231.16a60.29,60.29,0,0,0-1.71-21.54l-2.37,2.67s-.55,3.15-1.22,7.57C365.38,223.15,367.24,227.13,369.14,231.16Z" style="opacity:0.2"></path><path d="M342.26,190.9c1.13,4.39,2.46,12.48-.48,15.62a51.3,51.3,0,0,0,11.82,6.08c4.7-4.36,2-6.86,2-6.86-5-.93-5.1-4.59-4.47-8.08Z" style="fill:#ffb573"></path><path d="M345.89,193.69l5.26,4a14.61,14.61,0,0,0-.29,2.47c-1.9-.17-4.85-1.7-5.16-3.68A8,8,0,0,1,345.89,193.69Z" style="opacity:0.2;isolation:isolate"></path><path d="M337.38,184.62c2.84,6.76,3.9,9.69,8.63,12,7.11,3.49,14.79-1.48,14-8.95-.69-6.73-5.22-16.65-12.94-17a10,10,0,0,0-9.72,14Z" style="fill:#ffb573"></path><path d="M337.65,190.66a5.35,5.35,0,0,0,3.49,2.14c1.86.28,2.56-1.44,1.85-3.07-.63-1.47-2.37-3.39-4.14-2.92a2.43,2.43,0,0,0-1.2,3.85Z" style="fill:#ffb573"></path><path d="M353.53,182.21a17.1,17.1,0,0,0,3.51,3.12,2.75,2.75,0,0,1-2,1.16Z" style="fill:#ed893e"></path><path d="M345,181a.26.26,0,0,1-.15,0,.29.29,0,0,1-.16-.38h0a3.41,3.41,0,0,1,2.37-2.06.3.3,0,0,1,.33.24.28.28,0,0,1-.23.33,2.84,2.84,0,0,0-1.93,1.72A.29.29,0,0,1,345,181Z" style="fill:#263238"></path><path d="M356.93,176.91a.26.26,0,0,1-.15,0,2.85,2.85,0,0,0-2.57.2.28.28,0,0,1-.4-.06h0a.3.3,0,0,1,.07-.41,3.44,3.44,0,0,1,3.13-.27.29.29,0,0,1,.18.37.3.3,0,0,1-.25.19Z" style="fill:#263238"></path><path d="M349.23,182.67c.2.56.65.91,1,.79s.5-.69.3-1.25-.65-.91-1-.79S349,182.11,349.23,182.67Z" style="fill:#263238"></path><path d="M355.59,180.45c.2.56.65.91,1,.78s.5-.68.31-1.25-.65-.91-1-.78S355.39,179.88,355.59,180.45Z" style="fill:#263238"></path><path d="M355.75,179.28l1.21-.86S356.64,179.72,355.75,179.28Z" style="fill:#263238"></path><path d="M349.39,181.51l1.21-.86S350.28,181.94,349.39,181.51Z" style="fill:#263238"></path><rect x="308.85" y="189.41" width="1.33" height="32.64" rx="0.42" transform="translate(607.16 428.28) rotate(-176.83)" style="fill:#263238"></rect><rect x="308.85" y="189.41" width="1.33" height="32.64" rx="0.42" transform="translate(607.16 428.28) rotate(-176.83)" style="fill:#fff;opacity:0.30000000000000004"></rect><path d="M296.2,195.22l13.49-4.64a15.47,15.47,0,0,0-.59,10.75Z" style="fill:#169B6E"></path><path d="M335.92,257.27s11.86,1.62,32.8-1.3a70.05,70.05,0,0,1-1.78-22.25c1-12.5,3.89-29.71-5.52-29.71-10.72,0-26.15.65-30.85,4.87S342.5,231.78,335.92,257.27Z" style="fill:#169B6E"></path><path d="M341,205.25v-2.11a1.69,1.69,0,0,1,1.93-1.69,28.67,28.67,0,0,0,9.35-.82,1.73,1.73,0,0,1,2,1.19l.66,2.28s1.47,3.43-2.74,3.81C344.85,208.56,341,205.25,341,205.25Z" style="fill:#169B6E"></path><path d="M337.66,227.6c-.36-5.36-3.12-12.48-3.12-12.48l-3.49,1.74c2.66,7.74,8.13,20.11,5.9,35.28,0-.07,0-.13,0-.2,1.81-11.15,5.81-14.24,5.51-17.4C342.32,232.7,338,231.75,337.66,227.6Z" style="opacity:0.2"></path><path d="M355,204.52h0c.24.92.44,3.09-2.87,3.39a16.67,16.67,0,0,1-10.7-2.29h0a19.33,19.33,0,0,0,9.84,4C357,210.12,355,204.52,355,204.52Z" style="opacity:0.2"></path><path d="M315,227.39l-3.09-5.68.94-6.25a2.48,2.48,0,0,0-1.44-2.64l-2.26-1-1-1.28a2.48,2.48,0,0,0-3.81,0l-1.34,1.56a2.54,2.54,0,0,0-.6,1.69l.11,3.38a2.46,2.46,0,0,0,.58,1.51l4.32,5.19,2.92,6.17Z" style="fill:#ffb573"></path><path d="M330.57,208.88s-4.79.33-5.28,12.26,0,16.56,0,16.56-2.92-2.19-11.2-14.12l-5.85,3.89s9,26.39,20,24.4,7.8-29,7.8-29S335.36,212,330.57,208.88Z" style="fill:#169B6E"></path><path d="M354,191.13a6.77,6.77,0,0,0,.9,0,.19.19,0,0,0,.13-.22.18.18,0,0,0-.15-.13,4.86,4.86,0,0,1-4-1.74.18.18,0,0,0-.25,0,.2.2,0,0,0,0,.25A5,5,0,0,0,354,191.13Z" style="fill:#263238"></path><polygon points="346.52 182.21 341.74 185.92 341.74 186.59 346.82 183.06 346.52 182.21" style="fill:#263238"></polygon><polygon points="346.52 182.21 341.74 185.92 341.74 186.59 346.82 183.06 346.52 182.21" style="opacity:0.2"></polygon><path d="M337.11,173.92s9.8-11,19.68.49l-4,.9-5.38-2.48,3.6,3.26-5,2.33-3.49-3.11,2.13,3.11a5,5,0,0,0-2.91,4c-.52,3.17,3.62,13.63-1.55,13.52s-5.54-11.76-5.54-11.76Z" style="fill:#263238"></path><path d="M360.78,179c-.52-1.76-2-1.55-3.76-1a3.91,3.91,0,0,0-2.54,1.51l-2.68.79a3.9,3.9,0,0,0-2.95.11c-1.75.51-3.12,1.14-2.6,2.89a3.31,3.31,0,1,0,6.36-1.87,2.53,2.53,0,0,0-.23-.55,2.92,2.92,0,0,1,.93-.42,3.18,3.18,0,0,1,1-.16,3,3,0,0,0,.11.6,3.31,3.31,0,0,0,6.36-1.87Z" style="fill:#263238"></path><path d="M360.78,179c-.52-1.76-2-1.55-3.76-1a3.91,3.91,0,0,0-2.54,1.51l-2.68.79a3.9,3.9,0,0,0-2.95.11c-1.75.51-3.12,1.14-2.6,2.89a3.31,3.31,0,1,0,6.36-1.87,2.53,2.53,0,0,0-.23-.55,2.92,2.92,0,0,1,.93-.42,3.18,3.18,0,0,1,1-.16,3,3,0,0,0,.11.6,3.31,3.31,0,0,0,6.36-1.87Z" style="opacity:0.2"></path><path d="M407.84,376.15s7.4,11.08.94,18.12l5.37,11.92a3.09,3.09,0,0,1,3.44,2.87l-3,.15s-2.92,0-5.17-3.41-5.95-8.81-5.74-11.87-.71-6.58-5.63-12.1S405.21,373.28,407.84,376.15Z" style="fill:#169B6E"></path><path d="M407.84,376.15s7.4,11.08.94,18.12l5.37,11.92a3.09,3.09,0,0,1,3.44,2.87l-3,.15s-2.92,0-5.17-3.41-5.95-8.81-5.74-11.87-.71-6.58-5.63-12.1S405.21,373.28,407.84,376.15Z" style="fill:#fff;opacity:0.30000000000000004"></path><path d="M390.87,362.67a26.94,26.94,0,0,0-8.67,6.93c-4.69,6-17.79,10.81-23.76-2,0,0-3.09,10.63,7.63,12.6,0,0-2.19,1.68-6.05.32,0,0,4.68,5.57,15.73-.82a9.65,9.65,0,0,1-3.46,3.47s4.84-.25,9-5.93c3.31-4.53,8.35-10.74,8.35-10.74Z" style="fill:#169B6E"></path><path d="M390.87,362.67a26.94,26.94,0,0,0-8.67,6.93c-4.69,6-17.79,10.81-23.76-2,0,0-3.09,10.63,7.63,12.6,0,0-2.19,1.68-6.05.32,0,0,4.68,5.57,15.73-.82a9.65,9.65,0,0,1-3.46,3.47s4.84-.25,9-5.93c3.31-4.53,8.35-10.74,8.35-10.74Z" style="fill:#fff;opacity:0.5"></path><path d="M439.9,373.51l.68,13.22-3.38,5.46-7.09,1.1a5.9,5.9,0,0,1,5.16-4.66l.36-1.89-3-11.3Z" style="fill:#169B6E"></path><path d="M439.9,373.51l.68,13.22-3.38,5.46-7.09,1.1a5.9,5.9,0,0,1,5.16-4.66l.36-1.89-3-11.3Z" style="fill:#fff;opacity:0.30000000000000004"></path><path d="M387.18,369.66c.5-4.37,1.67-8.58,14.74-10.54s20.49-3,25.73-5.54,9.17-8.11,15-2.4,7.58,20.74-2,26.44-31.21.16-39.13,1.06S386.22,378.06,387.18,369.66Z" style="fill:#169B6E"></path><path d="M387.18,369.66c.5-4.37,1.67-8.58,14.74-10.54s20.49-3,25.73-5.54,9.17-8.11,15-2.4,7.58,20.74-2,26.44-31.21.16-39.13,1.06S386.22,378.06,387.18,369.66Z" style="fill:#fff;opacity:0.6000000000000001"></path><path d="M433.28,350.12s8.19-9.73,10.91-13.77,12.62,1.17,13.13,3.95-3.77,22-12.27,32.95S433.28,350.12,433.28,350.12Z" style="fill:#169B6E"></path><path d="M433.28,350.12s8.19-9.73,10.91-13.77,12.62,1.17,13.13,3.95-3.77,22-12.27,32.95S433.28,350.12,433.28,350.12Z" style="fill:#fff;opacity:0.6000000000000001"></path><path d="M412.43,379.21c-11.39-1.66-10.83-5.46-10.83-5.46l-2.42-.7-1.58,2.33-.13,3.52a34.33,34.33,0,0,0,4-.22c2.53-.29,6.47.08,11,.53Z" style="opacity:0.2"></path><path d="M401.8,372.56s-2.26,15.24-8.14,19.32c-3.39,2.35-4.3,8.16-4.69,12.55-.28,3.24,2,4.78-2.18,5.49,0,0-.86-9.45-2.43-14.37a3.33,3.33,0,0,1,.69-3.25c1.73-1.93,4.37-5.48,3.79-8.7-.86-4.71-2.89-7.9-1.66-13.94S401,368.94,401.8,372.56Z" style="fill:#169B6E"></path><path d="M401.8,372.56s-2.26,15.24-8.14,19.32c-3.39,2.35-4.3,8.16-4.69,12.55-.28,3.24,2,4.78-2.18,5.49,0,0-.86-9.45-2.43-14.37a3.33,3.33,0,0,1,.69-3.25c1.73-1.93,4.37-5.48,3.79-8.7-.86-4.71-2.89-7.9-1.66-13.94S401,368.94,401.8,372.56Z" style="fill:#fff;opacity:0.6000000000000001"></path><path d="M440.45,369.28l-3.62-.6-1.31,1.52s4.46,8-4.07,9.87a21.62,21.62,0,0,0,9.15-2.45,12.44,12.44,0,0,0,2.11-1.57Z" style="opacity:0.2"></path><path d="M434.79,369.16s7.75,11.53,12.58,12.18,12-2.69,12-2.69,2.53,3.33,6.27,1.91l-3.38-4.06-5.14-1.93h-7.48s-1.91-10.51-2.39-13.05S433.53,367.38,434.79,369.16Z" style="fill:#169B6E"></path><path d="M434.79,369.16s7.75,11.53,12.58,12.18,12-2.69,12-2.69,2.53,3.33,6.27,1.91l-3.38-4.06-5.14-1.93h-7.48s-1.91-10.51-2.39-13.05S433.53,367.38,434.79,369.16Z" style="fill:#fff;opacity:0.6000000000000001"></path><path d="M454.37,346.21,447.61,349l-2.52,3s3.76,4.08,9.18,2.61c.84-2.57,1.51-5,2-7.11A14.16,14.16,0,0,0,454.37,346.21Z" style="opacity:0.2"></path><path d="M442.62,336.67s4.15-4.73,8.88-5.21,6.84,2.69,8.42,2.49,6.7-2.44,8-1,1.72,7.17-.31,8.13c0,0-.26,4.4-7.26,5.74,0,0-5,7.09-11.12,6.67S436.18,344.08,442.62,336.67Z" style="fill:#169B6E"></path><path d="M442.62,336.67s4.15-4.73,8.88-5.21,6.84,2.69,8.42,2.49,6.7-2.44,8-1,1.72,7.17-.31,8.13c0,0-.26,4.4-7.26,5.74,0,0-5,7.09-11.12,6.67S436.18,344.08,442.62,336.67Z" style="fill:#fff;opacity:0.6000000000000001"></path><path d="M444,336.8a1.21,1.21,0,0,1,1.84.71c.86,3.54,2.25,11.93-3.15,14.4-6.91,3.16-3.62-10.05-1.76-12.65A15.17,15.17,0,0,1,444,336.8Z" style="fill:#169B6E"></path><path d="M444,336.8a1.21,1.21,0,0,1,1.84.71c.86,3.54,2.25,11.93-3.15,14.4-6.91,3.16-3.62-10.05-1.76-12.65A15.17,15.17,0,0,1,444,336.8Z" style="fill:#fff;opacity:0.30000000000000004"></path><path d="M433.07,349.88A26.44,26.44,0,0,0,449.39,366a1,1,0,0,0,1.22-.5l.65-1.23a1,1,0,0,0-.56-1.42,25.92,25.92,0,0,1-15.34-14.48.79.79,0,0,0-1.31-.21l-.82.93A.78.78,0,0,0,433.07,349.88Z" style="fill:#263238"></path><path d="M433.07,349.88A26.44,26.44,0,0,0,449.39,366a1,1,0,0,0,1.22-.5l.65-1.23a1,1,0,0,0-.56-1.42,25.92,25.92,0,0,1-15.34-14.48.79.79,0,0,0-1.31-.21l-.82.93A.78.78,0,0,0,433.07,349.88Z" style="fill:#fff;opacity:0.30000000000000004"></path><path d="M453.6,336.46c.35.6.95.9,1.35.67s.42-.91.06-1.5-.94-.9-1.34-.67S453.24,335.86,453.6,336.46Z" style="fill:#263238"></path><path d="M453,332.88a.34.34,0,0,1-.18.34,3.83,3.83,0,0,0-1.65,2.6.33.33,0,0,1-.37.28.32.32,0,0,1-.27-.37c0-.08.35-2.27,2-3.09a.33.33,0,0,1,.44.14A.42.42,0,0,1,453,332.88Z" style="fill:#169B6E"></path><path d="M453,332.88a.34.34,0,0,1-.18.34,3.83,3.83,0,0,0-1.65,2.6.33.33,0,0,1-.37.28.32.32,0,0,1-.27-.37c0-.08.35-2.27,2-3.09a.33.33,0,0,1,.44.14A.42.42,0,0,1,453,332.88Z" style="fill:#fff;opacity:0.30000000000000004"></path><path d="M463.39,339.08a.31.31,0,0,1,.33.18,3.87,3.87,0,0,0,2.6,1.65.33.33,0,0,1,.28.37.33.33,0,0,1-.37.27c-.08,0-2.26-.36-3.09-2a.34.34,0,0,1,.14-.44A.21.21,0,0,1,463.39,339.08Z" style="fill:#169B6E"></path><path d="M464.46,332.74a5.06,5.06,0,0,0,1.88,1.85,5.14,5.14,0,0,0,2.48.7,5.05,5.05,0,0,0-.91-2.31C467.33,332.31,465.94,332.41,464.46,332.74Z" style="fill:#263238"></path><path d="M435.53,349.16l-26.84-57.49-2.06,1,26.8,57.95a.74.74,0,0,0,1.22.18l.76-.84A.75.75,0,0,0,435.53,349.16Z" style="fill:#263238"></path><path d="M399.78,278.24c-6.88,4.24,4,13.37,7,15.71a1.62,1.62,0,0,0,1.57.25l.12,0a1.63,1.63,0,0,0,1.05-1.75C408.89,288,406.48,274.11,399.78,278.24Zm7,13.66a.92.92,0,0,1-.89-.14c-2-1.51-10-8.19-5.06-11.27s6.56,7.39,6.93,10.29a.91.91,0,0,1-.6,1Z" style="fill:#263238"></path><path d="M399.78,278.24c-6.88,4.24,4,13.37,7,15.71a1.62,1.62,0,0,0,1.57.25l.12,0a1.63,1.63,0,0,0,1.05-1.75C408.89,288,406.48,274.11,399.78,278.24Zm7,13.66a.92.92,0,0,1-.89-.14c-2-1.51-10-8.19-5.06-11.27s6.56,7.39,6.93,10.29a.91.91,0,0,1-.6,1Z" style="fill:#fff;opacity:0.30000000000000004"></path></g><g id="freepik--character-1--inject-1"><polygon points="123.06 382.08 123.89 400.69 133.8 400.93 134.26 381.69 123.06 382.08" style="fill:#ff8b7b"></polygon><path d="M123.52,392.26a33.22,33.22,0,0,0,10.49.25l.19-8.09-5.57-1.32-5.52.1Z" style="opacity:0.1"></path><path d="M134.73,398.24a.22.22,0,0,1-.18-.19.21.21,0,0,1,.11-.23c.14-.08,3.45-1.95,5-1.51a1.19,1.19,0,0,1,.71.53.86.86,0,0,1,0,1c-.4.5-1.61.71-2.79.7A16.45,16.45,0,0,1,134.73,398.24Zm.72-.3c1.76.23,4.15.23,4.59-.39.07-.07.13-.21,0-.49a.62.62,0,0,0-.44-.31,1.52,1.52,0,0,0-.42-.06A10.28,10.28,0,0,0,135.45,397.94Z" style="fill:#169B6E"></path><path d="M134.61,398.22a.2.2,0,0,1-.1-.2c0-.12.28-2.67,1.49-3.65a1.67,1.67,0,0,1,1.25-.38c.62.07.81.38.83.64.2,1.06-2.09,3.1-3.23,3.6h-.09A.16.16,0,0,1,134.61,398.22Zm2.49-3.81a1.22,1.22,0,0,0-.78.28,5.27,5.27,0,0,0-1.27,2.9c1.17-.69,2.67-2.29,2.62-2.93,0-.06,0-.22-.44-.26Z" style="fill:#169B6E"></path><path d="M133.77,396.91l-10.33-.06a.83.83,0,0,0-.82.64l-1.92,8.4a1.39,1.39,0,0,0,1,1.66,1.55,1.55,0,0,0,.29,0c3.73,0,7-.23,11.68-.2,5.47,0,4.08.68,10.51.81,3.88.07,4.61-4.33,3-4.56-7.52-1-8.29-3.26-11.17-6A3.33,3.33,0,0,0,133.77,396.91Z" style="fill:#263238"></path><path d="M100.43,245.49s35.67,52.67,37.11,63.89c1.09,8.52-1.93,80.32-1.93,80.32a62.46,62.46,0,0,1-13.67-.33s-2.39-33.88-4.22-56.4c-.78-9.63-.61-17.17-1.49-19.16-2.91-6.65-31.93-37-35.4-49.22s-2.14-18.89-2.14-18.89Z" style="fill:#169B6E"></path><path d="M100.43,245.49s35.67,52.67,37.11,63.89c1.09,8.52-1.93,80.32-1.93,80.32a62.46,62.46,0,0,1-13.67-.33s-2.39-33.88-4.22-56.4c-.78-9.63-.61-17.17-1.49-19.16-2.91-6.65-31.93-37-35.4-49.22s-2.14-18.89-2.14-18.89Z" style="fill:#fff;opacity:0.30000000000000004"></path><path d="M102.39,295.78h0c-9-11.11-11.66-41.49-11.66-41.49l-7.88,7.27-.61,6.52C85.89,275.46,94.64,286.33,102.39,295.78Z" style="opacity:0.2"></path><path d="M91.42,247.38s1.61,66-5.22,88.05A5.36,5.36,0,0,1,79,338.66l-8.48-3.45a5,5,0,0,1-2.83-6.69L69,325.58s-2.31-33.8-3.33-45.14-5.13-19.41,0-34.62Z" style="fill:#169B6E"></path><path d="M91.42,247.38s1.61,66-5.22,88.05A5.36,5.36,0,0,1,79,338.66l-8.48-3.45a5,5,0,0,1-2.83-6.69L69,325.58s-2.31-33.8-3.33-45.14-5.13-19.41,0-34.62Z" style="fill:#fff;opacity:0.30000000000000004"></path><polygon points="69.22 337.01 65.25 347.65 70.24 350.53 76.58 341.28 69.22 337.01" style="fill:#263238"></polygon><polygon points="69.22 337.01 65.25 347.65 70.24 350.53 76.58 341.28 69.22 337.01" style="fill:#fff;opacity:0.6000000000000001"></polygon><path d="M60.4,403.12c-9.92-1-21.85-3.07-20.74-6.76,1.88-6.25,13-13.36,16.75-18.26,4.59-5.94,12.38-27.35,12.38-27.35a2.31,2.31,0,0,1,3.07-1.09l-9.3-3.6-4.1,7.15-10,23.31-8,7-7.57,8.57-1.66,4.69,2.43,2.16,11.41,3.89,10.32,1.11Z" style="fill:#263238"></path><path d="M60.4,403.12c-9.92-1-21.85-3.07-20.74-6.76,1.88-6.25,13-13.36,16.75-18.26,4.59-5.94,12.38-27.35,12.38-27.35a2.31,2.31,0,0,1,3.07-1.09l-9.3-3.6-4.1,7.15-10,23.31-8,7-7.57,8.57-1.66,4.69,2.43,2.16,11.41,3.89,10.32,1.11Z" style="fill:#fff;opacity:0.1"></path><path d="M53,404.52l7.58-.61s1,2-3.26,2.5S53,404.52,53,404.52Z" style="fill:#263238"></path><path d="M53,404.52l7.58-.61s1,2-3.26,2.5S53,404.52,53,404.52Z" style="opacity:0.2"></path><path d="M66.6,331.65l17.71,7.07a1.93,1.93,0,0,1,.84,3c-1.27,1.56-4.44,2.86-12.29-.09-8.43-3.17-9.35-6.57-8.88-8.65A1.94,1.94,0,0,1,66.6,331.65Z" style="fill:#263238"></path><path d="M66.6,331.65l17.71,7.07a1.93,1.93,0,0,1,.84,3c-1.27,1.56-4.44,2.86-12.29-.09-8.43-3.17-9.35-6.57-8.88-8.65A1.94,1.94,0,0,1,66.6,331.65Z" style="fill:#fff;opacity:0.7000000000000001"></path><path d="M63,402.9a.65.65,0,0,1,.18,1.26c-11.51,3.8-35.93-2.47-33.56-9,2.57-7.07,13-14.12,16.75-19.24,4.94-6.65,13.38-30.3,13.38-30.3a2.29,2.29,0,0,1,3.18-1.05L75,351a1.16,1.16,0,0,1,.48,1.61h0a1.25,1.25,0,0,1-1.57.5l-9.55-4.48a2.3,2.3,0,0,0-3.07,1.08s-7.79,21.42-12.38,27.36c-3.79,4.9-14.87,12-16.75,18.25C30.62,400.5,54.77,402.4,63,402.9Z" style="fill:#263238"></path><path d="M63,402.9a.65.65,0,0,1,.18,1.26c-11.51,3.8-35.93-2.47-33.56-9,2.57-7.07,13-14.12,16.75-19.24,4.94-6.65,13.38-30.3,13.38-30.3a2.29,2.29,0,0,1,3.18-1.05L75,351a1.16,1.16,0,0,1,.48,1.61h0a1.25,1.25,0,0,1-1.57.5l-9.55-4.48a2.3,2.3,0,0,0-3.07,1.08s-7.79,21.42-12.38,27.36c-3.79,4.9-14.87,12-16.75,18.25C30.62,400.5,54.77,402.4,63,402.9Z" style="fill:#fff;opacity:0.5"></path><rect x="153.92" y="176.77" width="1.4" height="34.36" rx="0.42" transform="translate(333.04 366.26) rotate(172.56)" style="fill:#263238"></rect><rect x="153.92" y="176.77" width="1.4" height="34.36" rx="0.42" transform="translate(333.04 366.26) rotate(172.56)" style="fill:#fff;opacity:0.30000000000000004"></rect><path d="M138.81,185.66l13.06-7.42a16.17,16.17,0,0,0,1.47,11.23Z" style="fill:#169B6E"></path><path d="M121.91,208s6.15,10.59,8.2,11.11S149.25,208,149.25,208l1.2-6.14a1.39,1.39,0,0,1,1-1.08l2.73-.65,3.07-2.94a1.38,1.38,0,0,1,2,.07l.29.33a1.3,1.3,0,0,1,.35.76l.94,8.13a1.45,1.45,0,0,1-.07.62l-1.33,3.71a1.38,1.38,0,0,1-1.09.9l-5.85.9s-16.24,17.78-23.24,17.78-15.88-14.21-15.88-14.21Z" style="fill:#ff8b7b"></path><path d="M104,187.7A49.34,49.34,0,0,1,116.18,198c4.31,5,9,13.33,9,13.33s-5.64,5.69-11,7.46l-11.92-15.52S100,191.67,104,187.7Z" style="fill:#169B6E"></path><path d="M111.27,215c-2.1-2.73-1.11-16.07-1.11-16.07L109,195.78l-3.71.59-2.61,4.93.4,3.06L111.27,215Z" style="opacity:0.2"></path><path d="M63.37,251.54S59.52,189.25,78,183.86s35.38,8.72,33.07,12.82-11.19,42.47-5.38,54.86C105.67,251.54,89.38,259,63.37,251.54Z" style="fill:#169B6E"></path><path d="M66.27,206.05s-10.51,6.29-11,8.35,10.35,18,10.35,18l7.18,2.14a1.39,1.39,0,0,1,1.09,1l.68,2.72,3,3a1.38,1.38,0,0,1,0,2l-.32.3a1.37,1.37,0,0,1-.76.35l-8.12,1a1.31,1.31,0,0,1-.62-.06L64,243.61a1.35,1.35,0,0,1-.91-1.07l-1-5.84s-18-16-18.1-23,14-16.06,14-16.06Z" style="fill:#ff8b7b"></path><path d="M81.09,193.71c2.92-11.77-8.45,3-8.45,3l-5.79,3.48a96.7,96.7,0,0,0-2.37,12.59C68.37,210.61,78.69,203.43,81.09,193.71Z" style="opacity:0.2"></path><path d="M101.29,192a1.63,1.63,0,0,0,.11-.31c0-.1,0-.21.07-.31a2.34,2.34,0,0,0,0-.26c0-.1,0-.2,0-.3v-.13c0-.22,0-.45,0-.68V190a13.94,13.94,0,0,0-1.39-4.31l-.83-.35a10.44,10.44,0,0,1,1.82-6.17l-7.16-11.53c-.5,4.32-1.86,11.31-4.72,15.2-.85-.07-1.72-.13-2.61-.13.22.69.51,1.53.89,2.43h0l.15.36c.1.2.19.41.29.62l.23.48.2.36c.08.15.16.3.25.45l.21.36.3.48.21.32c.16.23.32.46.49.68l.15.19c.17.22.35.44.54.65a2.73,2.73,0,0,0,.23.25c.15.16.3.32.46.47l.27.25c.17.16.34.3.52.44l.26.21a8.11,8.11,0,0,0,.83.57h0a6.72,6.72,0,0,0,.88.47l.3.13c.22.1.45.19.68.27l.36.12c.24.07.49.13.74.18l.34.07a8.45,8.45,0,0,0,1.14.14,8.6,8.6,0,0,0,.88,0h.18a4.81,4.81,0,0,0,.71-.11l.1,0a3.52,3.52,0,0,0,.52-.18l.12,0a2.93,2.93,0,0,0,.46-.27l.1-.09a2.54,2.54,0,0,0,.29-.28l.07-.09a1.81,1.81,0,0,0,.24-.37C101.25,192.1,101.27,192,101.29,192Z" style="fill:#ff8b7b"></path><path d="M96.84,172.31l4.27,6.8a17,17,0,0,0-1.32,2.71,8.39,8.39,0,0,1-4.43-6.45C95.27,173.72,96.22,172.3,96.84,172.31Z" style="opacity:0.2;isolation:isolate"></path><path d="M106.27,166.85c-3.74-4.79-4.09-11.82-3.17-13s9.49-.56,10.32.4c4.21,4.66-1.88,10.61-1.88,10.61l.9,3.09Z" style="fill:#263238"></path><path d="M94.25,161.35c-.71,7.32-1.49,11.56,1.59,15.85,4.61,6.47,14.08,4.55,16.94-2.39,2.59-6.29,3.29-17.17-3.34-21.17a10,10,0,0,0-15.19,7.71Z" style="fill:#ff8b7b"></path><path d="M105.25,165.24c-.09.6.14,1.12.53,1.18s.77-.36.86-1-.14-1.11-.53-1.17S105.34,164.66,105.25,165.24Z" style="fill:#263238"></path><path d="M111.91,166.3c-.09.58.14,1.11.53,1.17s.77-.37.86-.95-.14-1.12-.53-1.18S112,165.71,111.91,166.3Z" style="fill:#263238"></path><path d="M109.4,166.13a21,21,0,0,0,2,5.48,3.46,3.46,0,0,1-2.91.09Z" style="fill:#ff5652"></path><path d="M103.4,162.12a.51.51,0,0,1-.17-.07.37.37,0,0,1,0-.5,3.53,3.53,0,0,1,3-1,.35.35,0,0,1,.27.42.36.36,0,0,1-.42.27h0a2.77,2.77,0,0,0-2.4.8A.34.34,0,0,1,103.4,162.12Z" style="fill:#263238"></path><path d="M114.93,164a.33.33,0,0,1-.24-.24,2.78,2.78,0,0,0-1.69-1.86.35.35,0,0,1,.2-.68,3.49,3.49,0,0,1,2.18,2.35.34.34,0,0,1-.22.43h0A.28.28,0,0,1,114.93,164Z" style="fill:#263238"></path><path d="M98.73,154.54s24.22,5.28,18.56-11.95c0,0-1.85,6.1-13.43,3.17-9.66-2.46-14.71.31-13.47,4.45S98.73,154.54,98.73,154.54Z" style="fill:#263238"></path><path d="M95.77,167.79s3-.11,1.71-2.8-1.08-4.86,1.23-5.91.88-6,.88-6l-7.87-1.89s-7.47,1.75-.37,14.28Z" style="fill:#263238"></path><path d="M89.64,167.55a7,7,0,0,0,3.81,3.72c2.29.89,3.67-1.08,3.24-3.37-.38-2-2-5-4.42-4.9S88.77,165.45,89.64,167.55Z" style="fill:#ff8b7b"></path><path d="M76.08,184.67A68.19,68.19,0,0,0,55.94,198l8,10.27s13.28-5.87,17.19-12.22c2.6-4.24.44-8.25-1.3-10.46A3.19,3.19,0,0,0,76.08,184.67Z" style="fill:#169B6E"></path><path d="M107.68,174.77a6,6,0,0,0,.95,0,.19.19,0,0,0,.12-.24.18.18,0,0,0-.16-.13,5.07,5.07,0,0,1-4.2-1.84.2.2,0,0,0-.26,0,.21.21,0,0,0,0,.27A5.26,5.26,0,0,0,107.68,174.77Z" style="fill:#263238"></path></g><g id="freepik--character-2--inject-1"><path d="M182.78,373.49v20.89c0,.13,0,.25,0,.38a13.84,13.84,0,0,0-2.37,7.81c0,7.15,5.23,13,11.67,13s11.67-5.83,11.67-13-5.24-13-11.67-13a10.74,10.74,0,0,0-6.13,2v-19.3l.77-.17a40.43,40.43,0,0,1,7.22-.25h16.33c.74,24.25,18.33,43.73,39.85,43.73,22,0,39.88-20.34,39.88-45.33,0-22.51-14.52-41.24-33.48-44.73l3.27-31.25c.31-3,.63-5.94.94-8.91a16.83,16.83,0,0,1,1.36-6.22c2.18-4.27,5.87-5.42,9.9-5.73a2.06,2.06,0,0,0,1.49.57h15.69c2.93,0,2.93-4.55,0-4.55H273.49a2.08,2.08,0,0,0-1.61.68h-.29A14,14,0,0,0,258,281.37c-.85,4.58-1,9.36-1.51,14l-1.68,16h-9.23a4,4,0,0,0-3.94-3.68H205a4,4,0,0,0-3.94,3.67c-3.43-.06-7-.23-10.21,1.16-10.37,4.56-8.07,17.63-8.07,26.79v34.19Zm3.11,29.32a9.79,9.79,0,0,0,6.63,2.77c2.06.11,2-3.08,0-3.18-3.27-.17-4.91-1.66-5.74-3.71a6.08,6.08,0,0,1,5.31-3.64c3.42,0,6.21,3.37,6.21,7.52s-2.79,7.51-6.21,7.51S186,406.84,185.89,402.81Zm29.85-31h1.61c.74,19.9,15.15,35.84,32.78,35.84,18.09,0,32.81-16.79,32.81-37.44,0-18.47-11.79-33.85-27.23-36.88.08-.8.17-1.6.25-2.39,16.21,3.21,28.59,19.6,28.59,39.27,0,22-15.44,39.86-34.42,39.86C231.61,410.08,216.47,393.06,215.74,371.82Zm0-3.19c.73-21.24,15.87-38.27,34.39-38.27.9,0,1.8.05,2.69.13-.08.81-.17,1.61-.25,2.41-.81-.07-1.62-.12-2.44-.12-17.63,0-32,15.94-32.78,35.85Zm39.72-32.87c14.22,2.91,25,17.25,25,34.46,0,19.31-13.63,35-30.38,35-16.29,0-29.62-14.85-30.35-33.41h15.44c6.82,0,15.89,1,17.3-8.1.67-4.34.93-8.78,1.38-13.14Zm-35.68,32.87c.73-18.57,14.06-33.42,30.35-33.42.73,0,1.46,0,2.19.1q-.91,8.63-1.81,17.24c-.48,4.57.21,13.89-5.21,15.74-2,.68-4.58.34-6.64.34H219.78Zm-33.82.42V334.21c0-3-.08-6.06,0-9.09.18-6.41,5-10.54,11.2-10.58h5.17a4,4,0,0,0,2.67,1h36.65a4,4,0,0,0,2.67-1h10.17c-.37,3.51-.73,7-1.1,10.52-1.08-.1-2.16-.16-3.26-.16-21.52,0-39.11,19.47-39.85,43.73H196.69c-2.33,0-4.67-.05-7,0A19.91,19.91,0,0,0,186,369.05Z" style="fill:#169B6E"></path><path d="M182.78,373.49v20.89c0,.13,0,.25,0,.38a13.84,13.84,0,0,0-2.37,7.81c0,7.15,5.23,13,11.67,13s11.67-5.83,11.67-13-5.24-13-11.67-13a10.74,10.74,0,0,0-6.13,2v-19.3l.77-.17a40.43,40.43,0,0,1,7.22-.25h16.33c.74,24.25,18.33,43.73,39.85,43.73,22,0,39.88-20.34,39.88-45.33,0-22.51-14.52-41.24-33.48-44.73l3.27-31.25c.31-3,.63-5.94.94-8.91a16.83,16.83,0,0,1,1.36-6.22c2.18-4.27,5.87-5.42,9.9-5.73a2.06,2.06,0,0,0,1.49.57h15.69c2.93,0,2.93-4.55,0-4.55H273.49a2.08,2.08,0,0,0-1.61.68h-.29A14,14,0,0,0,258,281.37c-.85,4.58-1,9.36-1.51,14l-1.68,16h-9.23a4,4,0,0,0-3.94-3.68H205a4,4,0,0,0-3.94,3.67c-3.43-.06-7-.23-10.21,1.16-10.37,4.56-8.07,17.63-8.07,26.79v34.19Zm3.11,29.32a9.79,9.79,0,0,0,6.63,2.77c2.06.11,2-3.08,0-3.18-3.27-.17-4.91-1.66-5.74-3.71a6.08,6.08,0,0,1,5.31-3.64c3.42,0,6.21,3.37,6.21,7.52s-2.79,7.51-6.21,7.51S186,406.84,185.89,402.81Zm29.85-31h1.61c.74,19.9,15.15,35.84,32.78,35.84,18.09,0,32.81-16.79,32.81-37.44,0-18.47-11.79-33.85-27.23-36.88.08-.8.17-1.6.25-2.39,16.21,3.21,28.59,19.6,28.59,39.27,0,22-15.44,39.86-34.42,39.86C231.61,410.08,216.47,393.06,215.74,371.82Zm0-3.19c.73-21.24,15.87-38.27,34.39-38.27.9,0,1.8.05,2.69.13-.08.81-.17,1.61-.25,2.41-.81-.07-1.62-.12-2.44-.12-17.63,0-32,15.94-32.78,35.85Zm39.72-32.87c14.22,2.91,25,17.25,25,34.46,0,19.31-13.63,35-30.38,35-16.29,0-29.62-14.85-30.35-33.41h15.44c6.82,0,15.89,1,17.3-8.1.67-4.34.93-8.78,1.38-13.14Zm-35.68,32.87c.73-18.57,14.06-33.42,30.35-33.42.73,0,1.46,0,2.19.1q-.91,8.63-1.81,17.24c-.48,4.57.21,13.89-5.21,15.74-2,.68-4.58.34-6.64.34H219.78Zm-33.82.42V334.21c0-3-.08-6.06,0-9.09.18-6.41,5-10.54,11.2-10.58h5.17a4,4,0,0,0,2.67,1h36.65a4,4,0,0,0,2.67-1h10.17c-.37,3.51-.73,7-1.1,10.52-1.08-.1-2.16-.16-3.26-.16-21.52,0-39.11,19.47-39.85,43.73H196.69c-2.33,0-4.67-.05-7,0A19.91,19.91,0,0,0,186,369.05Z" style="fill:#fff;opacity:0.4"></path><rect x="182.27" y="341.78" width="113.5" height="7.89" rx="3.7" transform="translate(478.04 691.45) rotate(180)" style="fill:#169B6E"></rect><rect x="182.27" y="341.78" width="113.5" height="7.89" rx="3.7" transform="translate(478.04 691.45) rotate(180)" style="opacity:0.4"></rect><rect x="199.24" y="218.06" width="1.42" height="34.82" rx="0.67" transform="translate(104.31 -58.27) rotate(22.3)" style="fill:#263238"></rect><rect x="199.24" y="218.06" width="1.42" height="34.82" rx="0.67" transform="translate(104.31 -58.27) rotate(22.3)" style="fill:#fff;opacity:0.30000000000000004"></rect><path d="M217.6,231.47,206.74,220.8a16.36,16.36,0,0,1-4.36,10.61Z" style="fill:#169B6E"></path><path d="M200.91,248.76s.89-5,.36-6.73a7.44,7.44,0,0,0-1-1.85c-.78-1.09-2-4.21-3.27-4.67-.58-.21-1.85.44-2.31.84-1.79,1.57-3.86,6.08-3.8,8.46,0,1.61,2.12,4.43,3.26,5.57a10.53,10.53,0,0,0,1.81,1.05l3.38,6.43,5-3.27Z" style="fill:#ffc3bd"></path><path d="M244.49,246.3s-9.89.68-15.08,5.15c-4.17,3.58-12.74,14.1-15,13.84s-10.91-13.85-10.91-13.85a15.26,15.26,0,0,0-6.5,4.34s10.77,23.37,17.14,23.37c7.28,0,24.79-19.49,24.79-19.49Z" style="fill:#169B6E"></path><path d="M224.83,273.28c2-12.18,5.22-16.77,5.22-16.77l4,2.16,1.82,4.23A136.12,136.12,0,0,1,224.83,273.28Z" style="opacity:0.1"></path><polygon points="168.99 381.35 165.27 391.21 173.97 392.84 179.03 385.18 168.99 381.35" style="fill:#ffc3bd"></polygon><path d="M164.83,389.67l10,1.92a.82.82,0,0,1,.67.78l.26,8.52a1.39,1.39,0,0,1-1.32,1.42l-.29,0c-3.61-.76-6.79-1.57-11.29-2.43-5.32-1-4.09-.12-10.36-1.22-3.78-.67-3.65-5.08-2-5,7.48.48,8.66-1.59,12-3.66A3.29,3.29,0,0,1,164.83,389.67Z" style="fill:#263238"></path><path d="M252.08,313.18s9.72,27.3-4.89,27.79L215.7,342a116.29,116.29,0,0,1-15.51-.8s-.44,17-23.65,49.37c0,0-4.66-.19-9.9-5.34,0,0,19.48-53.08,26.57-59.18C202.9,317.71,252.08,313.18,252.08,313.18Z" style="fill:#263238"></path><path d="M252.08,313.18s9.72,27.3-4.89,27.79L215.7,342a116.29,116.29,0,0,1-15.51-.8s-.44,17-23.65,49.37c0,0-4.66-.19-9.9-5.34,0,0,19.48-53.08,26.57-59.18C202.9,317.71,252.08,313.18,252.08,313.18Z" style="fill:#fff;opacity:0.1"></path><polygon points="179.81 388.12 176.7 392.48 165.11 386.49 166.74 381.43 179.81 388.12" style="fill:#263238"></polygon><polygon points="179.81 388.12 176.7 392.48 165.11 386.49 166.74 381.43 179.81 388.12" style="fill:#fff;opacity:0.5"></polygon><path d="M273.93,317.44s-23.62,2.82-43.17-2.11a265.22,265.22,0,0,1-2.5-35.12c.15-17-3.4-33.5,22.64-34.62,25.31-1.09,30.91-2.94,25.68,20.16S273,299.6,273.93,317.44Z" style="fill:#169B6E"></path><polygon points="180.95 386.98 176.91 396.71 185.56 398.63 190.87 391.14 180.95 386.98" style="fill:#ffc3bd"></polygon><path d="M176.46,395.23l10,2.26a.8.8,0,0,1,.64.8l0,8.52a1.36,1.36,0,0,1-1.36,1.37,1.43,1.43,0,0,1-.29,0c-3.58-.87-6.73-1.79-11.2-2.8-5.28-1.19-4.09-.25-10.32-1.57-3.75-.79-3.47-5.2-1.84-5,7.47.73,8.72-1.29,12.1-3.26A3.3,3.3,0,0,1,176.46,395.23Z" style="fill:#263238"></path><path d="M272.7,316.59s8.8,25.19-5.82,25.19h-31.5a117,117,0,0,1-15.48-1.31s-4.45,22.25-30.75,55.23c0,0-5.26-.35-10.32-5.67,0,0,20.64-57.86,27.92-63.73C216.72,318.27,272.7,316.59,272.7,316.59Z" style="fill:#263238"></path><path d="M272.7,316.59s8.8,25.19-5.82,25.19h-31.5a117,117,0,0,1-15.48-1.31s-4.45,22.25-30.75,55.23c0,0-5.26-.35-10.32-5.67,0,0,20.64-57.86,27.92-63.73C216.72,318.27,272.7,316.59,272.7,316.59Z" style="fill:#fff;opacity:0.2"></path><polygon points="191.8 394.11 188.54 398.36 177.16 391.99 178.96 386.98 191.8 394.11" style="fill:#263238"></polygon><polygon points="191.8 394.11 188.54 398.36 177.16 391.99 178.96 386.98 191.8 394.11" style="fill:#fff;opacity:0.5"></polygon><path d="M274.29,254.27l3.77,3.65c-.3,2.23-.79,4.82-1.48,7.83-.6,2.66-1.11,5.15-1.54,7.51-3.84-7.45-5.84-17.92-5.84-17.92Z" style="opacity:0.1"></path><path d="M273.53,294.93l-5,5.46S261,302.52,258.8,304c-.66.44-2.11,1.52-2.17,2.31a2.24,2.24,0,0,0,1,1.42c2.26,1.16,7.66.46,10.16,0a9.56,9.56,0,0,0,3.69-1.42,9.71,9.71,0,0,0,1.22-2.53l5.65-4.8Z" style="fill:#ffc3bd"></path><path d="M275.33,246.68c8.16,5.09,23.82,19.42,23.8,28.68s-23.07,27-23.07,27-2.9-.61-5.09-5.92c0,0,15.25-17.6,14.95-19.8s-12-10-15.58-17.69S271.32,244.19,275.33,246.68Z" style="fill:#169B6E"></path><path d="M259.73,248.8a12.38,12.38,0,0,1-3.65,2.48,20.14,20.14,0,0,1-9.61,1.12l-3-1.47-.21-1.7.07-.42.15,0c5.73-1,6.8-5.72,6.36-10.06L262,231.05C260.36,235.73,258.24,243.81,259.73,248.8Z" style="fill:#ffc3bd"></path><path d="M262.55,245.08l-2,2.83-5.34,3.69-6.23,1-4.52-.67L243,249.94l1.32-3.64a47.17,47.17,0,0,1,6.6-.71C255.39,245.4,259.25,245.18,262.55,245.08Z" style="fill:#ffc3bd"></path><path d="M247.77,253.43c-7.38,0-5.76-4.37-4.12-7,.77-.17,1.59-.31,2.45-.43-2.12,2-4.49,5.28,2.43,5.63a13.74,13.74,0,0,0,12.81-6.52l3.45-.09C263.37,247.56,258.87,253.43,247.77,253.43Z" style="fill:#169B6E"></path><path d="M247.77,253.43c-7.38,0-5.76-4.37-4.12-7,.77-.17,1.59-.31,2.45-.43-2.12,2-4.49,5.28,2.43,5.63a13.74,13.74,0,0,0,12.81-6.52l3.45-.09C263.37,247.56,258.87,253.43,247.77,253.43Z" style="fill:#fff;opacity:0.5"></path><path d="M257.05,234.2l-7.2,4.5a18.88,18.88,0,0,1,0,3.19c2.47,0,5.87-1.58,7.2-4.09C257.9,236.27,257.64,234.47,257.05,234.2Z" style="opacity:0.2;isolation:isolate"></path><path d="M250.19,223.44c5.53-3.29,8.56-10.11,8.1-11.62s-9.14-4.18-10.33-3.55c-5.93,3-2.21,11.19-2.21,11.19l-2.06,2.7Z" style="fill:#263238"></path><path d="M265.31,223.17c-2.1,7.49-2.95,12-7.62,15-7,4.62-15.64-.9-15.81-8.84-.15-7.2,3.32-18.2,11.39-19.61a10.58,10.58,0,0,1,12,13.42Z" style="fill:#ffc3bd"></path><path d="M265.73,228.52c5.17-3.81,7.39-10.5,6.72-11.92A7.88,7.88,0,0,0,262,212.71c-6,2.87-1.1,12.33-1.1,12.33L259.1,228Z" style="fill:#263238"></path><path d="M267.49,231.05a7.43,7.43,0,0,1-5.18,2.21c-2.6,0-3.21-2.48-1.91-4.56,1.16-1.88,3.91-4.14,6.24-3.15S269.16,229.31,267.49,231.05Z" style="fill:#ffc3bd"></path><path d="M253,222.8c-.13.62-.56,1-1,1s-.62-.65-.49-1.27.57-1.05,1-1S253.11,222.19,253,222.8Z" style="fill:#263238"></path><path d="M246,221.3c-.14.61-.57,1-1,.95s-.62-.66-.48-1.27.57-1,1-1S246.13,220.68,246,221.3Z" style="fill:#263238"></path><path d="M248.54,222.09a22.36,22.36,0,0,1-4.1,4.63,3.69,3.69,0,0,0,2.84,1.2Z" style="fill:#ed847e"></path><path d="M256,220.42a.31.31,0,0,0,.19,0,.39.39,0,0,0,.18-.49,3.75,3.75,0,0,0-2.63-2.13.37.37,0,1,0-.11.73h0a3,3,0,0,1,2.06,1.71A.37.37,0,0,0,256,220.42Z" style="fill:#263238"></path><path d="M243.89,217.9a.36.36,0,0,0,.32-.15,3,3,0,0,1,2.38-1.2.37.37,0,0,0,.4-.33.36.36,0,0,0-.34-.4,3.7,3.7,0,0,0-3.05,1.48.36.36,0,0,0,.06.51h0A.31.31,0,0,0,243.89,217.9Z" style="fill:#263238"></path><path d="M263.76,215.73s-23.75-2.24-17-11.87c8.62-12.31,10.38-1.89,10.38-1.89s14.27-3.14,10,5.31C267.15,207.28,280.58,215,263.76,215.73Z" style="fill:#263238"></path><path d="M247.39,231.32a5.91,5.91,0,0,1-1-.23.21.21,0,0,1-.15-.25h0a.21.21,0,0,1,.27-.13,5.7,5.7,0,0,0,5.06-.79.22.22,0,0,1,.3,0,.21.21,0,0,1,0,.29A5.82,5.82,0,0,1,247.39,231.32Z" style="fill:#263238"></path><path d="M165.07,407.16h26.57a2.17,2.17,0,0,1,2.17,2.17v.28a2.17,2.17,0,0,1-2.17,2.17H165.07a2.18,2.18,0,0,1-2.18-2.18v-.28a2.17,2.17,0,0,1,2.17-2.17Z" transform="translate(306.35 837.37) rotate(-173.12)" style="fill:#169B6E"></path><g style="opacity:0.4"><path d="M165.07,407.16h26.57a2.17,2.17,0,0,1,2.17,2.17v.28a2.17,2.17,0,0,1-2.17,2.17H165.07a2.18,2.18,0,0,1-2.18-2.18v-.28a2.17,2.17,0,0,1,2.17-2.17Z" transform="translate(306.35 837.37) rotate(-173.12)"></path></g><path d="M327.24,273.27H315.9c-5.46,0-10.95.21-13.83,5.84a16.84,16.84,0,0,0-1.37,6.22l-.93,8.91q-3,28.17-5.9,56.34c-.45,4.36-.71,8.8-1.39,13.14-1.41,9.09-10.47,8.1-17.29,8.1H233.92a40.58,40.58,0,0,0-7.23.25c-8.29,1.56-13.15,10.91-17.81,17.14l-15.72,21c-.35.48-.71,1-1.07,1.43-1.21,1.63-4,0-2.75-1.61,8.45-11.3,16.78-22.72,25.37-33.92a18.81,18.81,0,0,1,14.94-7.5c2.34-.05,4.68,0,7,0h42c2.06,0,4.65.34,6.64-.34,5.42-1.85,4.73-11.17,5.21-15.74q3-28.59,6-57.2c.48-4.62.65-9.4,1.5-14a14,14,0,0,1,13.59-11.28c3.86-.12,7.75,0,11.62,0h4.06a1.59,1.59,0,0,1,0,3.18Z" style="fill:#169B6E"></path><g style="opacity:0.5"><path d="M327.24,273.27H315.9c-5.46,0-10.95.21-13.83,5.84a16.84,16.84,0,0,0-1.37,6.22l-.93,8.91q-3,28.17-5.9,56.34c-.45,4.36-.71,8.8-1.39,13.14-1.41,9.09-10.47,8.1-17.29,8.1H233.92a40.58,40.58,0,0,0-7.23.25c-8.29,1.56-13.15,10.91-17.81,17.14l-15.72,21c-.35.48-.71,1-1.07,1.43-1.21,1.63-4,0-2.75-1.61,8.45-11.3,16.78-22.72,25.37-33.92a18.81,18.81,0,0,1,14.94-7.5c2.34-.05,4.68,0,7,0h42c2.06,0,4.65.34,6.64-.34,5.42-1.85,4.73-11.17,5.21-15.74q3-28.59,6-57.2c.48-4.62.65-9.4,1.5-14a14,14,0,0,1,13.59-11.28c3.86-.12,7.75,0,11.62,0h4.06a1.59,1.59,0,0,1,0,3.18Z" style="fill:#fff"></path></g><path d="M329.15,274H313.46c-2.93,0-2.93-4.55,0-4.55h15.69c2.93,0,2.93,4.55,0,4.55Z" style="fill:#169B6E"></path><g style="opacity:0.4"><path d="M329.15,274H313.46c-2.93,0-2.93-4.55,0-4.55h15.69c2.93,0,2.93,4.55,0,4.55Z"></path></g><path d="M220.39,402.57c0-7.16,5.23-13,11.67-13s11.67,5.82,11.67,13-5.24,13-11.67,13S220.39,409.72,220.39,402.57Zm5.46,0c0,4.14,2.78,7.51,6.21,7.51s6.2-3.37,6.2-7.51-2.78-7.52-6.2-7.52S225.85,398.42,225.85,402.57Z" style="fill:#263238"></path><g style="opacity:0.1"><path d="M220.39,402.57c0-7.16,5.23-13,11.67-13s11.67,5.82,11.67,13-5.24,13-11.67,13S220.39,409.72,220.39,402.57Zm5.46,0c0,4.14,2.78,7.51,6.21,7.51s6.2-3.37,6.2-7.51-2.78-7.52-6.2-7.52S225.85,398.42,225.85,402.57Z" style="fill:#fff"></path></g><path d="M296,314.54c-19.61,0-39.22-.11-58.83,0-6.24,0-11,4.17-11.2,10.58-.09,3,0,6.06,0,9.09v56.48c0,5-.4,11.36,6.56,11.71,2,.1,2,3.29,0,3.18-6.39-.32-9.75-5.22-9.75-11.2V339.3c0-9.16-2.3-22.23,8.08-26.79,3.55-1.56,7.63-1.15,11.42-1.15H296a1.59,1.59,0,0,1,0,3.18Z" style="fill:#169B6E"></path><g style="opacity:0.7000000000000001"><path d="M296,314.54c-19.61,0-39.22-.11-58.83,0-6.24,0-11,4.17-11.2,10.58-.09,3,0,6.06,0,9.09v56.48c0,5-.4,11.36,6.56,11.71,2,.1,2,3.29,0,3.18-6.39-.32-9.75-5.22-9.75-11.2V339.3c0-9.16-2.3-22.23,8.08-26.79,3.55-1.56,7.63-1.15,11.42-1.15H296a1.59,1.59,0,0,1,0,3.18Z" style="fill:#fff"></path></g><rect x="241.02" y="307.68" width="44.55" height="7.89" rx="3.7" transform="translate(526.59 623.25) rotate(-180)" style="fill:#169B6E"></rect><rect x="241.02" y="307.68" width="44.55" height="7.89" rx="3.7" transform="translate(526.59 623.25) rotate(-180)" style="opacity:0.4"></rect><path d="M250.21,370.22c0-25,17.89-45.32,39.88-45.32S330,345.23,330,370.22s-17.89,45.33-39.89,45.33S250.21,395.21,250.21,370.22Zm5.47,0c0,22,15.44,39.86,34.41,39.86s34.42-17.88,34.42-39.86-15.44-39.86-34.42-39.86S255.68,348.24,255.68,370.22Z" style="fill:#263238"></path><g style="opacity:0.1"><path d="M250.21,370.22c0-25,17.89-45.32,39.88-45.32S330,345.23,330,370.22s-17.89,45.33-39.89,45.33S250.21,395.21,250.21,370.22Zm5.47,0c0,22,15.44,39.86,34.41,39.86s34.42-17.88,34.42-39.86-15.44-39.86-34.42-39.86S255.68,348.24,255.68,370.22Z" style="fill:#fff"></path></g><path d="M257.28,370.22c0-20.64,14.72-37.44,32.81-37.44s32.82,16.8,32.82,37.44-14.72,37.44-32.82,37.44S257.28,390.87,257.28,370.22Zm2.43,0c0,19.31,13.63,35,30.38,35s30.39-15.7,30.39-35-13.63-35-30.39-35S259.71,350.92,259.71,370.22Z" style="fill:#169B6E"></path><g style="opacity:0.7000000000000001"><path d="M257.28,370.22c0-20.64,14.72-37.44,32.81-37.44s32.82,16.8,32.82,37.44-14.72,37.44-32.82,37.44S257.28,390.87,257.28,370.22Zm2.43,0c0,19.31,13.63,35,30.38,35s30.39-15.7,30.39-35-13.63-35-30.39-35S259.71,350.92,259.71,370.22Z" style="fill:#fff"></path></g></g></svg>