<svg xmlns="http://www.w3.org/2000/svg" viewBox="0 0 500 500"><g id="freepik--Floor--inject-37"><ellipse id="freepik--floor--inject-37" cx="252.17" cy="342.77" rx="223.22" ry="126.8" style="fill:#fafafa"></ellipse></g><g id="freepik--Shadow--inject-37"><ellipse id="freepik--shadow--inject-37" cx="397.49" cy="321.23" rx="43.14" ry="24.91" style="fill:#e6e6e6"></ellipse></g><g id="freepik--color-palette--inject-37"><g id="freepik--Palette--inject-37"><path d="M340.06,373.83h0a.58.58,0,0,0-.06-.26l-12.43-26.79a2.21,2.21,0,0,0-2.25-.75L101.37,380.68c-.83.13-1.37.57-1.36,1h0v4.69h0a.65.65,0,0,0,.06.26l12.43,26.78a2.21,2.21,0,0,0,2.25.75l224-34.65c.84-.13,1.38-.57,1.36-1.05h0Z" style="fill:#37474f"></path><path d="M101.37,380.68l224-34.65a2.21,2.21,0,0,1,2.25.75L340,373.57c.26.56-.32,1.14-1.3,1.29L114.75,409.51a2.19,2.19,0,0,1-2.25-.75L100.07,382C99.81,381.41,100.39,380.83,101.37,380.68Z" style="fill:#455a64"></path><polygon points="113.66 385.65 121.1 401.66 148.84 397.37 141.41 381.36 113.66 385.65" style="fill:#9a4a4d"></polygon><polygon points="184.69 374.66 192.12 390.67 219.87 386.38 212.43 370.37 184.69 374.66" style="fill:#9a4a4d"></polygon><polygon points="184.69 374.66 192.12 390.67 219.87 386.38 212.43 370.37 184.69 374.66" style="fill:#fff;opacity:0.4"></polygon><polygon points="220.2 369.16 227.64 385.18 255.38 380.89 247.95 364.87 220.2 369.16" style="fill:#9a4a4d"></polygon><polygon points="220.2 369.16 227.64 385.18 255.38 380.89 247.95 364.87 220.2 369.16" style="fill:#fff;opacity:0.6000000000000001"></polygon><polygon points="255.71 363.67 263.15 379.69 290.89 375.39 283.46 359.38 255.71 363.67" style="fill:#9a4a4d"></polygon><polygon points="255.71 363.67 263.15 379.69 290.89 375.39 283.46 359.38 255.71 363.67" style="fill:#fff;opacity:0.8"></polygon><polygon points="291.23 358.18 298.66 374.19 326.41 369.9 318.97 353.88 291.23 358.18" style="fill:#9a4a4d"></polygon><polygon points="291.23 358.18 298.66 374.19 326.41 369.9 318.97 353.88 291.23 358.18" style="fill:#fff"></polygon><polygon points="149.18 380.15 156.61 396.17 184.35 391.87 176.92 375.86 149.18 380.15" style="fill:#9a4a4d"></polygon><polygon points="149.18 380.15 156.61 396.17 184.35 391.87 176.92 375.86 149.18 380.15" style="fill:#fff;opacity:0.2"></polygon><path d="M113.06,409.29V414a1.19,1.19,0,0,1-.56-.52l-12.43-26.78a.76.76,0,0,1-.06-.25v-4.7a.58.58,0,0,0,.06.26l12.43,26.78A1.26,1.26,0,0,0,113.06,409.29Z" style="fill:#263238"></path><path d="M327.93,330.77h0a.73.73,0,0,0-.24-.52l-24-24a2.68,2.68,0,0,0-2.51-.39L100.37,372.78c-.58.2-.9.55-.91.91h0v4.68h0a.74.74,0,0,0,.24.53l24,24a2.66,2.66,0,0,0,2.51.39L327,336.38c.59-.19.91-.55.91-.92h0Z" style="fill:#37474f"></path><path d="M100.37,372.78l200.79-66.93a2.68,2.68,0,0,1,2.51.39l24,24c.51.51.21,1.16-.67,1.45L126.22,398.63a2.69,2.69,0,0,1-2.51-.39l-24-24C99.19,373.73,99.49,373.08,100.37,372.78Z" style="fill:#455a64"></path><polygon points="114.47 375.74 128.84 390.1 153.71 381.81 139.35 367.45 114.47 375.74" style="fill:#FF8D7E"></polygon><polygon points="114.47 375.74 128.84 390.1 153.71 381.81 139.35 367.45 114.47 375.74" style="opacity:0.6"></polygon><polygon points="178.15 354.52 192.52 368.87 217.39 360.58 203.03 346.22 178.15 354.52" style="fill:#FF8D7E"></polygon><g style="opacity:0.4"><polygon points="178.15 354.52 192.52 368.87 217.39 360.58 203.03 346.22 178.15 354.52"></polygon></g><polygon points="209.99 343.9 224.36 358.26 249.23 349.97 234.87 335.61 209.99 343.9" style="fill:#FF8D7E"></polygon><g style="opacity:0.3"><polygon points="209.99 343.9 224.36 358.26 249.23 349.97 234.87 335.61 209.99 343.9"></polygon></g><polygon points="241.83 333.29 256.2 347.65 281.07 339.35 266.71 325 241.83 333.29" style="fill:#ffa8a7"></polygon><polygon points="241.83 333.29 256.2 347.65 281.07 339.35 266.71 325 241.83 333.29" style="fill:#FF8D7E"></polygon><polygon points="241.83 333.29 256.2 347.65 281.07 339.35 266.71 325 241.83 333.29" style="opacity:0.2"></polygon><polygon points="273.67 322.68 288.04 337.03 312.91 328.74 298.55 314.38 273.67 322.68" style="fill:#ffa8a7"></polygon><polygon points="273.67 322.68 288.04 337.03 312.91 328.74 298.55 314.38 273.67 322.68" style="fill:#FF8D7E"></polygon><polygon points="273.67 322.68 288.04 337.03 312.91 328.74 298.55 314.38 273.67 322.68" style="opacity:0.1"></polygon><polygon points="146.31 365.13 160.68 379.49 185.55 371.19 171.19 356.84 146.31 365.13" style="fill:#FF8D7E"></polygon><g style="opacity:0.5"><polygon points="146.31 365.13 160.68 379.49 185.55 371.19 171.19 356.84 146.31 365.13"></polygon></g><path d="M124.75,398.72v4.68a2,2,0,0,1-1-.48l-24-24a.74.74,0,0,1-.24-.53v-4.61a.72.72,0,0,0,.24.46l24,24A2,2,0,0,0,124.75,398.72Z" style="fill:#263238"></path><path d="M98.5,368.51v1.69a2.9,2.9,0,0,0,1.3,2.25l34,19.6a2.84,2.84,0,0,0,2.6,0L300.3,297.4a2.87,2.87,0,0,0,1.3-2.25v-1.69a2.86,2.86,0,0,0-1.3-2.25L266.35,271.6a2.9,2.9,0,0,0-2.6,0L99.8,366.26A2.88,2.88,0,0,0,98.5,368.51Z" style="fill:#37474f"></path><path d="M99.8,366.26l164-94.66a2.9,2.9,0,0,1,2.6,0l33.95,19.61c.72.41.72,1.08,0,1.5L136.36,387.36a2.87,2.87,0,0,1-2.6,0l-34-19.6A.79.79,0,0,1,99.8,366.26Z" style="fill:#455a64"></path><path d="M135.06,387.68v4.68a2.63,2.63,0,0,1-1.3-.31l-33.95-19.6a2.89,2.89,0,0,1-1.3-2.25v-1.69a2.88,2.88,0,0,1,1-2.07c-.45.41-.36,1,.26,1.32l33.95,19.6A2.64,2.64,0,0,0,135.06,387.68Z" style="fill:#263238"></path><path d="M99.8,366.26l164-94.66a2.9,2.9,0,0,1,2.6,0l33.95,19.61c.72.41.72,1.08,0,1.5L136.36,387.36a2.9,2.9,0,0,1-2.6,0l-34-19.6A.79.79,0,0,1,99.8,366.26Z" style="fill:#455a64"></path><polygon points="114.75 367.01 135.06 378.73 155.37 367 135.06 355.28 114.75 367.01" style="fill:#FF8D7E"></polygon><polygon points="166.75 336.99 187.06 348.71 207.36 336.98 187.06 325.26 166.75 336.99" style="fill:#FF8D7E"></polygon><polygon points="166.75 336.99 187.06 348.71 207.36 336.98 187.06 325.26 166.75 336.99" style="fill:#fff;opacity:0.4"></polygon><polygon points="192.74 321.98 213.05 333.7 233.36 321.97 213.06 310.25 192.74 321.98" style="fill:#FF8D7E"></polygon><polygon points="192.74 321.98 213.05 333.7 233.36 321.97 213.06 310.25 192.74 321.98" style="fill:#fff;opacity:0.6000000000000001"></polygon><polygon points="218.74 306.97 239.05 318.69 259.36 306.96 239.05 295.24 218.74 306.97" style="fill:#FF8D7E"></polygon><polygon points="218.74 306.97 239.05 318.69 259.36 306.96 239.05 295.24 218.74 306.97" style="fill:#fff;opacity:0.8"></polygon><polygon points="244.74 291.96 265.05 303.68 285.36 291.95 265.05 280.23 244.74 291.96" style="fill:#FF8D7E"></polygon><polygon points="244.74 291.96 265.05 303.68 285.36 291.95 265.05 280.23 244.74 291.96" style="fill:#fff"></polygon><polygon points="140.75 352 161.06 363.72 181.37 351.99 161.06 340.27 140.75 352" style="fill:#FF8D7E"></polygon><polygon points="140.75 352 161.06 363.72 181.37 351.99 161.06 340.27 140.75 352" style="fill:#fff;opacity:0.2"></polygon><path d="M110,365.82a1.26,1.26,0,0,1,0,2.38,4.6,4.6,0,0,1-4.12,0,1.26,1.26,0,0,1,0-2.38A4.53,4.53,0,0,1,110,365.82Z" style="fill:#263238"></path><path d="M108.43,365.35A19.09,19.09,0,1,0,90.88,392a18.92,18.92,0,0,0,10.25-3l-1.06-2.29a.76.76,0,0,1-.06-.25v-.31A16,16,0,0,1,90.88,389a16.09,16.09,0,1,1,14.59-22.87,14.43,14.43,0,0,1,.86,2.33,4.77,4.77,0,0,0,3.12,0A19.17,19.17,0,0,0,108.43,365.35Z" style="fill:#e0e0e0"></path></g></g><g id="freepik--Colors--inject-37"><path d="M77.22,178.59a6,6,0,0,0-2.68-4.66l-2.19-1.26a5.93,5.93,0,0,0-5.38,0l-17.32,10A5.9,5.9,0,0,0,47,187.33v20A5.93,5.93,0,0,0,49.65,212l2.19,1.26a3.77,3.77,0,0,0,.57.27l.22.07a2.64,2.64,0,0,0,.4.12l.31.07.34.05.38,0H55a4.26,4.26,0,0,0,.5-.06l.13,0,.53-.11.07,0a4.36,4.36,0,0,0,1-.4l17.33-10a6,6,0,0,0,2.68-4.66Z" style="fill:#FF8D7E"></path><path d="M77.19,178.14c-.2-1.38-1.31-1.88-2.65-1.1L57.21,187a5.48,5.48,0,0,0-1.89,2l-7.57-4.37a5.5,5.5,0,0,1,1.9-2l17.32-10a5.91,5.91,0,0,1,5.37,0l2.2,1.26A6,6,0,0,1,77.19,178.14Z" style="fill:#fff;opacity:0.4"></path><path d="M56.73,213.47a.49.49,0,0,1-.17.06l-.39.13a6.22,6.22,0,0,1-1.06.21h0a4.61,4.61,0,0,1-.53,0,5.53,5.53,0,0,1-2.7-.64L49.65,212A6,6,0,0,1,47,207.33v-20a5.08,5.08,0,0,1,.32-1.67c.09-.22.18-.44.29-.65a3.47,3.47,0,0,1,.18-.33l7.57,4.37a5.34,5.34,0,0,0-.79,2.65v20c0,1.3.69,2,1.67,1.91l.17,0A2.47,2.47,0,0,0,56.73,213.47Z" style="opacity:0.1"></path><path d="M77.22,218.58a6,6,0,0,0-2.68-4.66l-2.19-1.26a5.93,5.93,0,0,0-5.38,0l-17.32,10A5.9,5.9,0,0,0,47,227.31v20A5.91,5.91,0,0,0,49.65,252l2.19,1.27a3.77,3.77,0,0,0,.57.27l.22.07c.13,0,.26.09.4.12l.31.06.34.06a2.43,2.43,0,0,0,.38,0l.28,0h.44l.21,0,.5,0,.13,0a4.54,4.54,0,0,0,.53-.12l.07,0a4.36,4.36,0,0,0,1-.4l17.33-10a6,6,0,0,0,2.68-4.66Z" style="fill:#f28f8f"></path><path d="M77.19,218.12c-.2-1.37-1.31-1.88-2.65-1.09L57.21,227a5.4,5.4,0,0,0-1.89,2l-7.57-4.37a5.42,5.42,0,0,1,1.9-2l17.32-10a5.91,5.91,0,0,1,5.37,0l2.2,1.26A6,6,0,0,1,77.19,218.12Z" style="fill:#fff;opacity:0.4"></path><path d="M56.73,253.46a.85.85,0,0,1-.17.06,2.91,2.91,0,0,1-.39.12,4.74,4.74,0,0,1-1.06.21h0a4.58,4.58,0,0,1-.53,0,5.53,5.53,0,0,1-2.7-.64L49.65,252A6,6,0,0,1,47,247.32v-20a5,5,0,0,1,.32-1.67,6.58,6.58,0,0,1,.29-.66,3.3,3.3,0,0,1,.18-.32L55.32,229a5.34,5.34,0,0,0-.79,2.65v20c0,1.3.69,2,1.67,1.9l.17,0Z" style="opacity:0.1"></path><path d="M77.22,258.56a5.93,5.93,0,0,0-2.68-4.65l-2.19-1.27a6,6,0,0,0-5.38,0l-17.32,10a5.48,5.48,0,0,0-1.91,2A5.53,5.53,0,0,0,47,267.3v20A5.93,5.93,0,0,0,49.65,292l2.19,1.26a3,3,0,0,0,.57.27l.22.08.4.12.31.06.34.06.38,0,.28,0H55l.5,0,.13,0,.53-.11.07,0a4.38,4.38,0,0,0,1-.41l17.33-10a5.93,5.93,0,0,0,2.68-4.65Z" style="fill:#b16668"></path><path d="M77.19,258.11c-.2-1.38-1.31-1.88-2.65-1.1L57.21,267a5.48,5.48,0,0,0-1.89,2l-7.57-4.37a5.5,5.5,0,0,1,1.9-2l17.32-10a5.91,5.91,0,0,1,5.37,0l2.2,1.27A6,6,0,0,1,77.19,258.11Z" style="fill:#fff;opacity:0.2"></path><path d="M56.73,293.45l-.17.06c-.13,0-.26.09-.39.12a4.74,4.74,0,0,1-1.06.21h0a4.58,4.58,0,0,1-.53,0,5.53,5.53,0,0,1-2.7-.64L49.65,292A6,6,0,0,1,47,287.3v-20a5,5,0,0,1,.32-1.66,6.58,6.58,0,0,1,.29-.66,3.47,3.47,0,0,1,.18-.33L55.32,269a5.34,5.34,0,0,0-.79,2.65v20c0,1.3.69,2,1.67,1.91l.17,0Z" style="opacity:0.30000000000000004"></path><path d="M77.22,298.55a6,6,0,0,0-2.68-4.66l-2.19-1.26a5.93,5.93,0,0,0-5.38,0l-17.32,10A5.9,5.9,0,0,0,47,307.29v20A6,6,0,0,0,49.65,332l2.19,1.26a3.77,3.77,0,0,0,.57.27l.22.07c.13,0,.26.09.4.12s.21,0,.31.06a1.86,1.86,0,0,0,.34.06l.38,0h.28c.15,0,.3,0,.44,0H55l.5-.06.13,0a4.54,4.54,0,0,0,.53-.12l.07,0a4.36,4.36,0,0,0,1-.4l17.33-10a6,6,0,0,0,2.68-4.66Z" style="fill:#455a64"></path><path d="M77.19,298.09c-.2-1.37-1.31-1.87-2.65-1.09L57.21,307a5.48,5.48,0,0,0-1.89,2l-7.57-4.37a5.5,5.5,0,0,1,1.9-2l17.32-10a5.91,5.91,0,0,1,5.37,0l2.2,1.26A6,6,0,0,1,77.19,298.09Z" style="fill:#fff;opacity:0.1"></path><path d="M56.73,333.43a.49.49,0,0,1-.17.06l-.39.13a6.22,6.22,0,0,1-1.06.21h0l-.53,0a5.53,5.53,0,0,1-2.7-.64L49.65,332A6,6,0,0,1,47,327.29v-20a5,5,0,0,1,.32-1.67,6.58,6.58,0,0,1,.29-.66,3.3,3.3,0,0,1,.18-.32L55.32,309a5.34,5.34,0,0,0-.79,2.65v20c0,1.3.69,2,1.67,1.9l.17,0A2.47,2.47,0,0,0,56.73,333.43Z" style="opacity:0.4"></path><path d="M303,48.3a6,6,0,0,0-2.69-4.66l-2.18-1.26a5.93,5.93,0,0,0-5.38,0l-17.32,10A5.9,5.9,0,0,0,272.76,57V77a6,6,0,0,0,2.69,4.66L277.64,83a4.15,4.15,0,0,0,.56.27l.23.07c.13,0,.26.09.4.12s.21,0,.31.06a1.86,1.86,0,0,0,.34.06l.38,0h.93l.5-.06.13,0a4.54,4.54,0,0,0,.53-.12l.07,0a4.56,4.56,0,0,0,1-.4l17.33-10A6,6,0,0,0,303,68.3Z" style="fill:#f5f5f5"></path><path d="M303,47.84c-.2-1.37-1.31-1.87-2.65-1.09L283,56.75a5.4,5.4,0,0,0-1.89,2l-7.58-4.37a5.61,5.61,0,0,1,1.91-2l17.32-10a5.91,5.91,0,0,1,5.37,0l2.2,1.26A6,6,0,0,1,303,47.84Z" style="fill:#fff;opacity:0.4"></path><path d="M282.53,83.18a.49.49,0,0,1-.17.06l-.39.13a6.22,6.22,0,0,1-1.06.21s0,0-.05,0l-.53,0a5.53,5.53,0,0,1-2.7-.64l-2.18-1.26a6,6,0,0,1-2.7-4.66V57a5.06,5.06,0,0,1,.33-1.67,6.58,6.58,0,0,1,.29-.66c.06-.11.11-.22.17-.32l7.58,4.37a5.34,5.34,0,0,0-.79,2.65v20c0,1.3.69,2,1.67,1.9l.17,0A2.47,2.47,0,0,0,282.53,83.18Z" style="opacity:0.1"></path><path d="M303,88.29a5.93,5.93,0,0,0-2.69-4.66l-2.18-1.27a6,6,0,0,0-5.38,0l-17.32,10a5.45,5.45,0,0,0-1.91,2,5.53,5.53,0,0,0-.78,2.64v20a5.93,5.93,0,0,0,2.69,4.66l2.19,1.27a3.2,3.2,0,0,0,.56.26l.23.08.4.12.31.06.34.06.38,0,.28,0h.65l.5,0,.13,0a4.52,4.52,0,0,0,.53-.11l.07,0a4.56,4.56,0,0,0,1-.4l17.33-10a5.93,5.93,0,0,0,2.68-4.65Z" style="fill:#e0e0e0"></path><path d="M303,87.83c-.2-1.38-1.31-1.88-2.65-1.1L283,96.74a5.37,5.37,0,0,0-1.89,2l-7.58-4.36a5.53,5.53,0,0,1,1.91-2l17.32-10a5.91,5.91,0,0,1,5.37,0l2.2,1.26A6,6,0,0,1,303,87.83Z" style="fill:#fff;opacity:0.4"></path><path d="M282.53,123.17l-.17.06-.39.12a4.74,4.74,0,0,1-1.06.21s0,0-.05,0a4.58,4.58,0,0,1-.53,0,5.53,5.53,0,0,1-2.7-.64l-2.18-1.26a6,6,0,0,1-2.7-4.66V97a5,5,0,0,1,.33-1.66,6.58,6.58,0,0,1,.29-.66c.06-.11.11-.22.17-.32l7.58,4.36a5.37,5.37,0,0,0-.79,2.65v20c0,1.29.69,2,1.67,1.9l.17,0A2.42,2.42,0,0,0,282.53,123.17Z" style="opacity:0.1"></path><path d="M303,128.27a5.91,5.91,0,0,0-2.69-4.65l-2.18-1.27a5.93,5.93,0,0,0-5.38,0l-17.32,10a5.9,5.9,0,0,0-2.69,4.66v20a5.93,5.93,0,0,0,2.69,4.66l2.19,1.26a4.15,4.15,0,0,0,.56.27l.23.07a2.64,2.64,0,0,0,.4.12l.31.07.34,0,.38,0h.93a4.26,4.26,0,0,0,.5-.06l.13,0,.53-.11.07,0a5.15,5.15,0,0,0,1-.41l17.33-10a6,6,0,0,0,2.68-4.66Z" style="fill:#455a64"></path><path d="M303,127.82c-.2-1.38-1.31-1.88-2.65-1.1l-17.33,10a5.4,5.4,0,0,0-1.89,2l-7.58-4.37a5.61,5.61,0,0,1,1.91-2l17.32-10a5.91,5.91,0,0,1,5.37,0l2.2,1.26A6,6,0,0,1,303,127.82Z" style="fill:#fff;opacity:0.2"></path><path d="M282.53,163.15l-.17.07-.39.12a6.22,6.22,0,0,1-1.06.21s0,0-.05,0a4.58,4.58,0,0,1-.53,0,5.53,5.53,0,0,1-2.7-.65l-2.18-1.26a6,6,0,0,1-2.7-4.66V137a5.15,5.15,0,0,1,.33-1.67c.09-.22.18-.44.29-.65l.17-.33,7.58,4.37a5.34,5.34,0,0,0-.79,2.65v20c0,1.3.69,2,1.67,1.91l.17,0A2.47,2.47,0,0,0,282.53,163.15Z" style="opacity:0.30000000000000004"></path><path d="M303,168.26a5.93,5.93,0,0,0-2.69-4.66l-2.18-1.26a5.93,5.93,0,0,0-5.38,0l-17.32,10a5.9,5.9,0,0,0-2.69,4.66v20a5.91,5.91,0,0,0,2.69,4.65l2.19,1.27a4.15,4.15,0,0,0,.56.27l.23.07c.13,0,.26.09.4.12s.21,0,.31.06a3.43,3.43,0,0,0,.34.06l.38,0h.72l.21,0a4.23,4.23,0,0,0,.5-.05l.13,0a4.54,4.54,0,0,0,.53-.12l.07,0a4.56,4.56,0,0,0,1-.4l17.33-10a6,6,0,0,0,2.68-4.66Z" style="fill:#263238"></path><path d="M303,167.8c-.2-1.37-1.31-1.87-2.65-1.09l-17.33,10a5.32,5.32,0,0,0-1.89,2l-7.58-4.37a5.61,5.61,0,0,1,1.91-2l17.32-10a5.91,5.91,0,0,1,5.37,0l2.2,1.26A6,6,0,0,1,303,167.8Z" style="fill:#fff;opacity:0.1"></path><path d="M282.53,203.14a.85.85,0,0,1-.17.06,2.91,2.91,0,0,1-.39.12,4.74,4.74,0,0,1-1.06.21h-.05a4.58,4.58,0,0,1-.53,0,5.53,5.53,0,0,1-2.7-.64l-2.18-1.26a6,6,0,0,1-2.7-4.66V177a5.06,5.06,0,0,1,.33-1.67,6.58,6.58,0,0,1,.29-.66c.06-.11.11-.22.17-.32l7.58,4.37a5.34,5.34,0,0,0-.79,2.65v20c0,1.3.69,2,1.67,1.9l.17,0Z" style="opacity:0.4"></path></g><g id="freepik--Types--inject-37"><g id="freepik--type-slab--inject-37"><path d="M189.48,258.31l-8-4.63a6.59,6.59,0,0,1-3-5.17V181a6.58,6.58,0,0,1,3-5.17l58.44-33.74a6.61,6.61,0,0,1,6,0l8,4.64a6.59,6.59,0,0,1,3,5.17V219.4a6.62,6.62,0,0,1-3,5.18l-58.44,33.73A6.55,6.55,0,0,1,189.48,258.31Z" style="fill:#f5f5f5"></path><path d="M195.45,183.94l58.44-33.74c1.65-.95,3-.18,3,1.73V219.4a6.62,6.62,0,0,1-3,5.18l-58.44,33.73c-1.65,1-3,.18-3-1.72V189.11A6.59,6.59,0,0,1,195.45,183.94Z" style="fill:#f0f0f0"></path><path d="M195.07,258.51a6.65,6.65,0,0,1-5.59-.2l-8-4.63a6.61,6.61,0,0,1-3-5.18V181a6,6,0,0,1,.87-2.94l14,8.08a6.11,6.11,0,0,0-.87,2.94v67.48C192.47,258.34,193.6,259.14,195.07,258.51Z" style="fill:#e0e0e0"></path><path d="M210.4,197.83l-2.52,1.46v-5l8.09-4.67,9,26.46,2.22-1.28v5.1L218.36,225v-5.1l2.87-1.65c-.62-1.54-1.06-3.23-1.54-4.53l-11.81,6.82c-.41,1.76-1,4.06-1.57,6.32l2.76-1.6v5.1l-8.84,5.11v-5.1l2.22-1.28Zm7.86,11.81c-1.2-3.67-2.39-7.61-4.34-13.42-2,8.33-3.45,13.66-4.64,18.6Z" style="fill:#37474f"></path><path d="M249.11,202.65v4.63l-5.63,3.25c0,.68-.41-4-.41-3.29a13.51,13.51,0,0,1-5.84,7.63c-5,2.88-8.74-.05-8.74-8.67s3.9-15.75,8.81-18.59c2.39-1.38,4.61-1.14,5.87,1.08l0-4,5.8-3.35v4.73l-2.53,1.46v16.66Zm-17.27,1.83c0,5.25,2.42,7.38,5.56,5.56,3.62-2.09,5.74-7.25,5.87-11.8.14-5-1.91-7.93-5.87-5.64C234.3,194.39,231.84,199.28,231.84,204.48Z" style="fill:#37474f"></path></g><g id="freepik--type-script--inject-37"><path d="M189.48,173.45l-8-4.64a6.59,6.59,0,0,1-3-5.17V96.16a6.59,6.59,0,0,1,3-5.17l58.44-33.74a6.61,6.61,0,0,1,6,0l8,4.64a6.6,6.6,0,0,1,3,5.17v67.48a6.6,6.6,0,0,1-3,5.17l-58.44,33.74A6.61,6.61,0,0,1,189.48,173.45Z" style="fill:#f5f5f5"></path><path d="M195.45,99.08l58.44-33.74c1.65-1,3-.18,3,1.72v67.48a6.6,6.6,0,0,1-3,5.17l-58.44,33.74c-1.65,1-3,.18-3-1.73V104.25A6.58,6.58,0,0,1,195.45,99.08Z" style="fill:#f0f0f0"></path><path d="M195.07,173.64a6.69,6.69,0,0,1-5.59-.19l-8-4.64a6.58,6.58,0,0,1-3-5.17V96.16a6.08,6.08,0,0,1,.87-2.94l14,8.08a6.11,6.11,0,0,0-.87,3v67.47C192.47,173.48,193.6,174.27,195.07,173.64Z" style="fill:#e0e0e0"></path><path d="M223.46,125.29l4.25-2.5c.77-.45,1.16,0,1.16.82a2.59,2.59,0,0,1-.29,1.27l-4.6,2.66,1.84,8.42a4.43,4.43,0,0,1-1.42,3.87c-.91.52-1.33.07-1.33.07l-2.31-10.51-8.27,4.78-1.62,7.72c-.87,4.16-2.79,10.05-6.55,12.23-2.53,1.46-4.09.26-4.09-3.54a21.15,21.15,0,0,1,10.19-17.76l4.73-23.31a15.15,15.15,0,0,1,.68-2.54l-.94-4.3a4,4,0,0,1,1.5-3.61c.9-.52,1.33-.07,1.33-.07ZM208.54,142l1.26-6.27a16.17,16.17,0,0,0-7.75,13.91c0,2.45,1,3.09,2.27,2.34C206.62,150.69,207.92,145,208.54,142Zm4.57-10.78,7.14-4.12-3.18-17Z" style="fill:#FF8D7E"></path><path d="M248.53,110.37c.26-.15.58.16.58,2.31,0,5.54-1.62,10.27-4.51,11.94-2.24,1.29-3.66.52-4.34-1.94-.78,3-2.24,5.74-4.12,6.83-3.57,2.06-5.68,0-5.68-8.16s2.86-12.94,6.46-15c1.65-1,2.62-.91,3.17-.38a3.61,3.61,0,0,1,1.5-2.31c.9-.53,1.23,0,1.23,0V118c0,3.89.87,5.23,2.17,4.48,1.79-1,3-4.3,3-11.49A.85.85,0,0,1,248.53,110.37Zm-8.66,8.29v-6.84c0-3.29-1.33-4.47-2.66-3.71-2.14,1.24-3.67,3.12-3.67,11.46s1.4,8.68,3,7.76C237.63,126.7,239.87,123.11,239.87,118.66Z" style="fill:#FF8D7E"></path></g><g id="freepik--type-sans--inject-37"><path d="M104.17,307.56l-8-4.64a6.58,6.58,0,0,1-3-5.17V230.27a6.61,6.61,0,0,1,3-5.17l58.44-33.74a6.61,6.61,0,0,1,6,0l8,4.64a6.6,6.6,0,0,1,3,5.17v67.48a6.6,6.6,0,0,1-3,5.17l-58.44,33.74A6.61,6.61,0,0,1,104.17,307.56Z" style="fill:#f5f5f5"></path><path d="M110.14,233.19l58.44-33.74c1.65-.95,3-.18,3,1.72v67.48a6.6,6.6,0,0,1-3,5.17l-58.44,33.74c-1.65.95-3,.18-3-1.72V238.36A6.58,6.58,0,0,1,110.14,233.19Z" style="fill:#f0f0f0"></path><path d="M109.76,307.75a6.69,6.69,0,0,1-5.59-.19l-8-4.64a6.58,6.58,0,0,1-3-5.17V230.27a6.11,6.11,0,0,1,.87-2.94l14,8.08a6.15,6.15,0,0,0-.87,3v67.48C107.16,307.59,108.29,308.38,109.76,307.75Z" style="fill:#e0e0e0"></path><path d="M135.93,266.43l-14.19,8.2-2.38,9.92-4.44,2.56,11.7-48.68,4.44-2.57L142.75,271l-4.44,2.57Zm-1.54-4.66-5.55-16.69-5.55,23.1Z" style="fill:#37474f"></path><path d="M163.8,239.79v19.1L160,261.11v-4.33c-1.51,4.16-4.33,7.56-6.82,9-4.36,2.52-7.58.46-7.58-5.7s3.69-12.63,8.21-15.24A14.13,14.13,0,0,1,160,243v-1c0-4-1.19-7.5-5.28-5.14-2,1.17-4,3.53-5.79,6l-1.42-3.63c2.93-4,5.51-6.36,7.77-7.66C160.75,228.36,163.8,232,163.8,239.79ZM160,251.22V247a14.35,14.35,0,0,0-5.59,2,10.85,10.85,0,0,0-5,8.7c0,3.42,2,4.35,4.56,2.86A13.84,13.84,0,0,0,160,251.22Z" style="fill:#37474f"></path></g><g id="freepik--type-serif--inject-37"><path d="M104.17,222.69l-8-4.63a6.61,6.61,0,0,1-3-5.17V145.41a6.58,6.58,0,0,1,3-5.17l58.44-33.74a6.61,6.61,0,0,1,6,0l8,4.63a6.62,6.62,0,0,1,3,5.18v67.47a6.59,6.59,0,0,1-3,5.17l-58.44,33.74A6.55,6.55,0,0,1,104.17,222.69Z" style="fill:#f5f5f5"></path><path d="M110.14,148.32l58.44-33.74c1.65-1,3-.18,3,1.73v67.47a6.59,6.59,0,0,1-3,5.17l-58.44,33.74c-1.65,1-3,.18-3-1.72V153.49A6.59,6.59,0,0,1,110.14,148.32Z" style="fill:#f0f0f0"></path><path d="M109.76,222.89a6.65,6.65,0,0,1-5.59-.2l-8-4.64a6.58,6.58,0,0,1-3-5.17V145.4a6,6,0,0,1,.87-2.93l14,8.08a6.11,6.11,0,0,0-.87,2.94V221C107.16,222.72,108.29,223.51,109.76,222.89Z" style="fill:#e0e0e0"></path><path d="M133.93,175.4l-10.83,6.26-1.9,7.89a20.48,20.48,0,0,0-.7,4.16,1.5,1.5,0,0,0,.61,1.38c.4.26,1.28.08,2.63-.55v1.17l-8.82,5.09v-1.17a9.05,9.05,0,0,0,2.27-2.55,39.89,39.89,0,0,0,2.34-7.55l9.84-41.15.72-.41,9.75,30.22c.78,2.43,1.49,3.88,2.13,4.37s1.53.46,2.68-.09v1.17L133.6,190v-1.18a6.63,6.63,0,0,0,2.26-2.16,4.28,4.28,0,0,0,.59-2.12,13.86,13.86,0,0,0-.82-3.94Zm-.57-2-4.75-14.67-4.87,20.23Z" style="fill:#37474f"></path><path d="M157.15,172.23c-1.94,3.43-3.15,5.46-3.65,6.11a8.17,8.17,0,0,1-2.37,2.16c-1.31.76-2.39.69-3.23-.2s-1.27-2.45-1.27-4.7a12.84,12.84,0,0,1,.62-4,23,23,0,0,1,2.94-5.77,95.21,95.21,0,0,1,7-8.66V156c0-2.91-.3-4.72-.89-5.46s-1.47-.77-2.61-.11a5.27,5.27,0,0,0-2.07,2.27,6.46,6.46,0,0,0-.78,2.93l0,1.82a6,6,0,0,1-.49,2.54,3.15,3.15,0,0,1-1.27,1.52.89.89,0,0,1-1.24-.1,3,3,0,0,1-.49-2,13,13,0,0,1,1.82-6.07,13.33,13.33,0,0,1,5.09-5.23c1.68-1,3.06-1.33,4.13-1.08a2.71,2.71,0,0,1,1.8,2.05,23,23,0,0,1,.37,5.38v9.88c0,2.77,0,4.45.1,5a1.81,1.81,0,0,0,.34,1.06.46.46,0,0,0,.55,0,1.81,1.81,0,0,0,.58-.56,34,34,0,0,0,1.67-3.28v1.78q-2.31,6.11-4.42,7.32a1.13,1.13,0,0,1-1.61-.16C157.37,175.07,157.17,174,157.15,172.23Zm0-2.07V159.07c-2.07,2.47-3.42,4.15-4,5a18.77,18.77,0,0,0-2.33,4.27,10.92,10.92,0,0,0-.7,3.75,4.9,4.9,0,0,0,.88,3.28,1.48,1.48,0,0,0,2.05.33C154.07,175.12,155.45,173.26,157.15,170.16Z" style="fill:#37474f"></path></g></g><g id="freepik--light-bulb--inject-37"><path d="M402.6,86.83a3.1,3.1,0,1,1-3.1-3.1A3.09,3.09,0,0,1,402.6,86.83Z" style="fill:#37474f"></path><path d="M395.79,87c-2.05-1.18-2.05-3.1,0-4.28a8.16,8.16,0,0,1,7.42,0c2.05,1.18,2.05,3.1,0,4.28A8.22,8.22,0,0,1,395.79,87Z" style="fill:#455a64"></path><path d="M395.68,85.91c-2.11-1.22-2.11-3.19,0-4.41a8.45,8.45,0,0,1,7.65,0c2.11,1.22,2.11,3.19,0,4.41A8.45,8.45,0,0,1,395.68,85.91Z" style="fill:#37474f"></path><path d="M395.56,84.76c-2.18-1.26-2.18-3.29,0-4.55a8.69,8.69,0,0,1,7.88,0c2.18,1.26,2.18,3.29,0,4.55A8.69,8.69,0,0,1,395.56,84.76Z" style="fill:#455a64"></path><path d="M395.44,83.57c-2.24-1.29-2.24-3.39,0-4.69a9,9,0,0,1,8.12,0c2.25,1.3,2.25,3.4,0,4.69A8.94,8.94,0,0,1,395.44,83.57Z" style="fill:#37474f"></path><path d="M395.36,82.33c-2.29-1.32-2.29-3.47,0-4.79a9.17,9.17,0,0,1,8.29,0c2.29,1.32,2.29,3.47,0,4.79A9.17,9.17,0,0,1,395.36,82.33Z" style="fill:#455a64"></path><path d="M399.5,46.3A14.73,14.73,0,0,0,384.77,61c0,11.7,9.65,13.65,9.65,18.36a2.53,2.53,0,0,0,1.49,2.08,8,8,0,0,0,7.19,0,2.55,2.55,0,0,0,1.49-2.08h0c0-4.71,9.65-6.66,9.65-18.36A14.74,14.74,0,0,0,399.5,46.3Z" style="fill:#FF8D7E"></path><path d="M396.8,80.83c-1.49-.86-1.49-2.26,0-3.12a5.93,5.93,0,0,1,5.41,0c1.49.86,1.49,2.26,0,3.12A6,6,0,0,1,396.8,80.83Z" style="opacity:0.1"></path><path d="M401.47,78.9a.5.5,0,0,1-.5-.49A35.35,35.35,0,0,1,402,70a16.58,16.58,0,0,1,.74-2.34,6.57,6.57,0,0,1-1.28-.63,8.49,8.49,0,0,1-2-1.64A8.42,8.42,0,0,1,397.55,67a6.57,6.57,0,0,1-1.28.63A18,18,0,0,1,397,70a36.3,36.3,0,0,1,1,8.42.52.52,0,0,1-.51.49.49.49,0,0,1-.49-.51,35.56,35.56,0,0,0-1-8.16,15.74,15.74,0,0,0-.74-2.33,3.15,3.15,0,0,1-2.79-.82,1.61,1.61,0,0,1-.22-2.07,1.35,1.35,0,0,1,1.37-.57c.78.16,1.55,1,2.21,2.29a5.26,5.26,0,0,0,1.16-.55,7.58,7.58,0,0,0,1.87-1.61,3.69,3.69,0,0,1-.73-2.81,1.41,1.41,0,0,1,2.69,0,3.73,3.73,0,0,1-.73,2.81A7.71,7.71,0,0,0,402,66.18a5.72,5.72,0,0,0,1.16.55c.66-1.32,1.43-2.13,2.22-2.29a1.36,1.36,0,0,1,1.36.57,1.6,1.6,0,0,1-.22,2.07,3.12,3.12,0,0,1-2.78.82,15.65,15.65,0,0,0-.75,2.33,35.26,35.26,0,0,0-1,8.16.5.5,0,0,1-.49.51Zm-8.09-13.48a.37.37,0,0,0-.29.18c-.24.34.05.7.14.8a2,2,0,0,0,1.6.53c-.53-1-1.05-1.44-1.38-1.5Zm10.79,1.51a2,2,0,0,0,1.6-.53.63.63,0,0,0,.14-.8c-.14-.19-.26-.19-.36-.17C405.22,65.49,404.71,66,404.17,66.93Zm-4.67-5.16a.33.33,0,0,0-.38.26,2.42,2.42,0,0,0,.38,1.64,2.37,2.37,0,0,0,.38-1.64C399.84,61.87,399.76,61.77,399.5,61.77Z" style="fill:#fff"></path><path d="M399.5,43.08a1,1,0,0,1-1-1V36.32a1,1,0,1,1,2,0v5.76A1,1,0,0,1,399.5,43.08Z" style="fill:#FF8D7E"></path><path d="M390.41,45.52a1,1,0,0,1-1.37-.37l-2.88-5a1,1,0,0,1,1.74-1l2.88,5A1,1,0,0,1,390.41,45.52Z" style="fill:#FF8D7E"></path><path d="M383.76,52.17a1,1,0,0,1-1.37.37l-5-2.88a1,1,0,1,1,1-1.73l5,2.88A1,1,0,0,1,383.76,52.17Z" style="fill:#FF8D7E"></path><path d="M381.32,61.27a1,1,0,0,1-1,1h-5.76a1,1,0,0,1,0-2h5.76A1,1,0,0,1,381.32,61.27Z" style="fill:#FF8D7E"></path><path d="M383.76,70.36a1,1,0,0,1-.37,1.36l-5,2.88a1,1,0,0,1-1.37-.36,1,1,0,0,1,.37-1.37l5-2.88A1,1,0,0,1,383.76,70.36Z" style="fill:#FF8D7E"></path><path d="M415.25,70.36a1,1,0,0,1,1.36-.37l5,2.88a1,1,0,1,1-1,1.73l-5-2.88A1,1,0,0,1,415.25,70.36Z" style="fill:#FF8D7E"></path><path d="M417.68,61.27a1,1,0,0,1,1-1h5.77a1,1,0,0,1,0,2h-5.77A1,1,0,0,1,417.68,61.27Z" style="fill:#FF8D7E"></path><path d="M415.25,52.17a1,1,0,0,1,.36-1.36l5-2.88a1,1,0,1,1,1,1.73l-5,2.88A1,1,0,0,1,415.25,52.17Z" style="fill:#FF8D7E"></path><path d="M408.59,45.52a1,1,0,0,1-.36-1.37l2.88-5a1,1,0,0,1,1.73,1l-2.88,5A1,1,0,0,1,408.59,45.52Z" style="fill:#FF8D7E"></path></g><g id="freepik--Character--inject-37"><g id="freepik--character--inject-37"><path d="M383.26,103.81h35.4a0,0,0,0,1,0,0v34.52a16.25,16.25,0,0,1-16.25,16.25h-2.89a16.25,16.25,0,0,1-16.25-16.25V103.81a0,0,0,0,1,0,0Z" transform="translate(801.92 258.4) rotate(180)" style="fill:#263238"></path><path d="M411.54,313.26v-1.14c-.45,1.34-2.53,7.08-5.69,10-2.51,2.29-5.93,4.94-6.81,7.49s4.77,3.55,7.11,3.13c2.73-.48,6.25-2,8.17-4.38,1.35-1.66,2.21-3.63,3.17-4.93s3.19-2.76,3.71-4.27c.29-.83-.05-2.64-.46-4.17s-.76-3-1.25-2.83V313a6.26,6.26,0,0,1-4,1.35C414.35,314.38,411.53,314.15,411.54,313.26Z" style="fill:#263238"></path><path d="M403.58,324.1l2.27-2c2.21-2,3.89-5.43,4.85-7.76a10.91,10.91,0,0,0,.84-4.18V305.6h7.95V313h0v.2l0,0c-.38,1.66-4,6.05-6.1,8.92-1.4,1.92-4,4.37-7.2,4.79C403.16,327.31,401.63,326.37,403.58,324.1Z" style="fill:#ffa8a7"></path><path d="M380.5,305.42v-1.14c-.45,1.33-2.53,7.08-5.69,10-2.51,2.29-5.93,4.93-6.8,7.49s4.76,3.54,7.11,3.13c2.72-.49,6.25-2,8.16-4.39,1.35-1.66,2.21-3.62,3.18-4.92s3.18-2.76,3.7-4.27c.29-.83-.05-2.64-.45-4.18s-.77-3-1.25-2.82v.87a6.32,6.32,0,0,1-4,1.34C383.31,306.54,380.49,306.31,380.5,305.42Z" style="fill:#263238"></path><path d="M372.54,316.25c.78-.69,1.56-1.37,2.27-2,2.21-2,3.89-5.42,4.85-7.75a10.77,10.77,0,0,0,.84-4.19v-4.53h8v7.38h0v.2l0,0c-.39,1.65-4,6.05-6.11,8.92-1.39,1.92-4,4.37-7.19,4.79S370.59,318.52,372.54,316.25Z" style="fill:#ffa8a7"></path><path d="M417.91,189.6c6.17,13.47-.22,60.93-.22,60.93.18,2.19,2.68,6.49,3.62,16.12,1.1,11.37-1.73,39.92-1.73,39.92a8.64,8.64,0,0,1-8,.32s-7.59-43-9-54.31c-1.25-9.87-3.64-31.56-3.64-31.56l-6.78,31.51a58.71,58.71,0,0,1,2.15,9.74c.64,6.65-5.8,37.61-5.8,37.61s-2.75,1-8,.24c0,0-2.28-41.09-2.88-49.1-1-13.45,2.56-55.43,5-63.4Z" style="fill:#37474f"></path><path d="M398.89,221l-2-12.51s-8.47-1.76-12.31-5.37a22,22,0,0,0,10,6.66l2.24,9.63-3.93,29.17Z" style="fill:#263238"></path><path d="M393.86,142.42A11.38,11.38,0,0,0,383.74,147l-15.38,20s-18-9-18.84-10-.39-3.22-.15-4.41.65-3.82.91-4.56c.46-1.29-1.45-.94-2.57.26s-1.63,3.57-2.19,4-4.84-4.51-6.91-6.88-3.05-4-4.44-3.06c-1,.71-.36,2.12,1.13,4.15a26.1,26.1,0,0,1,1.92,2.69c.18.36-.37.66-.59.85-.4.36-1.12,1-1.17,1.51a4.79,4.79,0,0,1,0,.93c-.2.67-1,1-1.27,1.65-.17.48,0,1-.08,1.52-.06.32-.24.61-.3.93a2.27,2.27,0,0,0,.67,1.75c1.46,1.73,3.45,2.4,5.36,3.45,1.59.88,3.23,1.27,5,2.08s23.06,15.52,26.41,13.67,20.7-22,20.7-22C397,147.12,393.86,142.42,393.86,142.42Z" style="fill:#ffa8a7"></path><path d="M407,142.79h0c7.91.54,8.46,4.36,10.44,8.54a13.51,13.51,0,0,1,.38,10.19l-5.52,15.95s2.59,6.23,5.58,12.13c-13.83,7.72-31.1,3.66-35.26-2-.17-1.19.89-10.53,1.55-16.63-2.43-6.11-3.08-10-2.05-14,1.91-7.49,9.32-14.8,12.59-14.53Z" style="fill:#FF8D7E"></path><path d="M419,109.5l-2.4,3.84a2.2,2.2,0,0,0,3.12-.63A2.38,2.38,0,0,0,419,109.5Z" style="fill:#263238"></path><path d="M421.65,113.88l-4.49-.63a2.2,2.2,0,0,0,1.85,2.59A2.37,2.37,0,0,0,421.65,113.88Z" style="fill:#263238"></path><path d="M389.08,111c-1.87,1.11-4.18,5.81-4,15.67.2,8.35,2.9,10.42,4.26,11s4,.23,6.54-.19v5s-3.53,4.1-3.31,6.4,5.09,2.84,8.39.59a21.2,21.2,0,0,0,5.41-5.66V131.68a3.21,3.21,0,0,0,4.54.43c2.81-1.87,2.92-6.5,1.28-8.16s-5.16-1.14-5.82,1.16c0,0-4.07.15-9.48-2.83A15.22,15.22,0,0,1,389.08,111Z" style="fill:#ffa8a7"></path><path d="M395.39,124.54a1.07,1.07,0,0,0,1,1.14,1.09,1.09,0,1,0-1-1.14Z" style="fill:#263238"></path><path d="M394.17,131.62l-2.44.78a1.25,1.25,0,0,0,1.59.87A1.34,1.34,0,0,0,394.17,131.62Z" style="fill:#f28f8f"></path><path d="M386.77,121.31l2.13-1.47a1.24,1.24,0,0,0-1.77-.36A1.36,1.36,0,0,0,386.77,121.31Z" style="fill:#263238"></path><path d="M387.26,123.78a1.05,1.05,0,1,0,1.11-1A1.07,1.07,0,0,0,387.26,123.78Z" style="fill:#263238"></path><polygon points="392.39 123.18 392.23 129.5 388.9 128.47 392.39 123.18" style="fill:#f28f8f"></polygon><path d="M395.92,137.46c2.68-.35,8.21-1.94,9.07-4.13a5.66,5.66,0,0,1-1.94,2.79c-1.65,1.42-7.13,3-7.13,3Z" style="fill:#f28f8f"></path><path d="M403.49,191.09a8.34,8.34,0,0,0,6.23-10.18c-.05-.17-.1-.32-.14-.44a2.72,2.72,0,0,0-2.8-1.85h0a8.09,8.09,0,0,0,3.45-5.16l1.68-10a11.63,11.63,0,0,0-.42-4.85l5.56-6.43,1,.72a13.86,13.86,0,0,1-.22,8.61l-5.52,15.95s2.59,6.23,5.58,12.13a35.74,35.74,0,0,1-29.55,2A40.23,40.23,0,0,0,403.49,191.09Z" style="opacity:0.1"></path><path d="M432.07,182.48c-7.18-29.36-12.49-39.14-21.22-39-2.54,3-1.84,12.24,2.19,17.82,0,0,9,18.93,10.4,25.66,1.26,5.91,2.68,13.35,2.59,18.43a3.61,3.61,0,0,1-1,2.42c-1.63,1.77-1.64,3.2-2.7,5.17-.83,1.54-1.74,2.11-1.48,2.46a2,2,0,0,0,2.69.2,10.27,10.27,0,0,0,2-2,20.28,20.28,0,0,1-1.62,5.44c-1.84,4.16-1.39,6.27,4.22,4.8,3.51-.93,5.71-3.86,6.24-12.3a65.1,65.1,0,0,0,.09-9.34C433.76,194.24,433.22,187.2,432.07,182.48Z" style="fill:#ffa8a7"></path></g></g></svg>